<svg width="44" height="44" viewBox="0 0 44 44" fill="none" xmlns="http://www.w3.org/2000/svg">
<circle cx="22" cy="22" r="21.75" fill="black" fill-opacity="0.5" stroke="white" stroke-width="0.5"/>
<path d="M30.5714 13C31.3604 13 32 13.6716 32 14.5V29.5C32 30.3284 31.3604 31 30.5714 31H13.4286C12.6396 31 12 30.3284 12 29.5V14.5C12 13.6716 12.6396 13 13.4286 13H30.5714ZM15.6544 25.7731L13.0714 28.4852V29.5C13.0714 29.7071 13.2313 29.875 13.4286 29.875H20.8236L16.9171 25.7731C16.5684 25.407 16.003 25.407 15.6544 25.7731ZM25.6544 22.7356L20.5969 28.0459L22.3389 29.875H30.5714C30.7687 29.875 30.9286 29.7071 30.9286 29.5V26.9477L26.9171 22.7356C26.5684 22.3695 26.003 22.3695 25.6544 22.7356ZM30.5714 14.125H13.4286C13.2313 14.125 13.0714 14.2929 13.0714 14.5V26.8942L14.8968 24.9776C15.6639 24.1721 16.9076 24.1721 17.6746 24.9776L19.8393 27.2505L24.8968 21.9402C25.6639 21.1347 26.9076 21.1347 27.6746 21.9402L30.9286 25.3567V14.5C30.9286 14.2929 30.7687 14.125 30.5714 14.125ZM18.4286 17.5375C19.612 17.5375 20.5714 18.5449 20.5714 19.7875C20.5714 21.0301 19.612 22.0375 18.4286 22.0375C17.2451 22.0375 16.2857 21.0301 16.2857 19.7875C16.2857 18.5449 17.2451 17.5375 18.4286 17.5375ZM18.4286 18.6625C17.8368 18.6625 17.3571 19.1662 17.3571 19.7875C17.3571 20.4088 17.8368 20.9125 18.4286 20.9125C19.0203 20.9125 19.5 20.4088 19.5 19.7875C19.5 19.1662 19.0203 18.6625 18.4286 18.6625Z" fill="white"/>
</svg>
