<svg width="40" height="40" viewBox="0 0 40 40" fill="none" xmlns="http://www.w3.org/2000/svg">
<circle cx="20" cy="20" r="20" fill="#F5F7F8"/>
<path d="M18.7613 20L12.2466 13.4826C11.9178 13.1537 11.9178 12.6113 12.2466 12.2823L12.2822 12.2467C12.611 11.9178 13.1532 11.9178 13.482 12.2467L19.9967 18.773L26.5113 12.2467C26.8402 11.9178 27.3823 11.9178 27.7112 12.2467L27.7467 12.2823C28.0844 12.6113 28.0844 13.1537 27.7467 13.4826L21.2321 20L27.7467 26.5174C28.0755 26.8463 28.0755 27.3887 27.7467 27.7177L27.7112 27.7533C27.3823 28.0822 26.8402 28.0822 26.5113 27.7533L19.9967 21.2359L13.482 27.7533C13.1532 28.0822 12.611 28.0822 12.2822 27.7533L12.2466 27.7177C11.9178 27.3887 11.9178 26.8463 12.2466 26.5174L18.7613 20Z" fill="#444444"/>
</svg>
