<svg width="16" height="16" viewBox="0 0 16 16" fill="none" xmlns="http://www.w3.org/2000/svg">
    <path
        d="M16 11.7614H11.52C10.08 11.7614 8.91734 10.5484 8.91734 9.04599C8.91734 7.5436 10.0907 6.33057 11.52 6.33057H16V11.7614ZM11.52 7.44344C10.6773 7.44344 9.984 8.16681 9.984 9.04599C9.984 9.92516 10.6667 10.6485 11.52 10.6485H14.9333V7.44344H11.52Z"
        fill="#D6D6D6" />
    <path
        d="M11.5093 9.60262C11.8039 9.60262 12.0427 9.3535 12.0427 9.04619C12.0427 8.73887 11.8039 8.48975 11.5093 8.48975C11.2148 8.48975 10.976 8.73887 10.976 9.04619C10.976 9.3535 11.2148 9.60262 11.5093 9.60262Z"
        fill="#D6D6D6" />
    <path
        d="M14.4 3.09221H12.416V2.66932C12.416 1.74563 11.7013 1 10.816 1H1.6C0.714667 1 0 1.74563 0 2.66932V4.76153V11.3943V13.3418C0 14.2655 0.714667 15.0111 1.6 15.0111H14.4C15.2853 15.0111 16 14.2655 16 13.3418V4.76153C16 3.83784 15.2747 3.09221 14.4 3.09221ZM1.06667 2.66932C1.06667 2.35771 1.30133 2.11288 1.6 2.11288H10.8053C11.104 2.11288 11.3387 2.35771 11.3387 2.66932V3.09221H1.6C1.408 3.09221 1.23733 3.13672 1.06667 3.19237V2.66932ZM14.9333 13.3307C14.9333 13.6423 14.6987 13.8871 14.4 13.8871H10.88H1.6C1.55733 13.8871 1.52533 13.876 1.48267 13.8649C1.376 13.8426 1.29067 13.787 1.216 13.7091C1.12 13.62 1.06667 13.4865 1.06667 13.3307V11.3831V4.76153C1.06667 4.44992 1.30133 4.20509 1.6 4.20509H11.3387H12.4053H14.3893C14.688 4.20509 14.9227 4.44992 14.9227 4.76153V13.3307H14.9333Z"
        fill="#999999" />
</svg>
