<svg width="16" height="16" viewBox="0 0 16 16" fill="none" xmlns="http://www.w3.org/2000/svg">
<path d="M0 8C-1.56548e-08 9.05057 0.206926 10.0909 0.608964 11.0615C1.011 12.0321 1.60028 12.914 2.34315 13.6569C3.08601 14.3997 3.96793 14.989 4.93853 15.391C5.90914 15.7931 6.94942 16 8 16C9.05057 16 10.0909 15.7931 11.0615 15.391C12.0321 14.989 12.914 14.3997 13.6569 13.6569C14.3997 12.914 14.989 12.0321 15.391 11.0615C15.7931 10.0909 16 9.05057 16 8C16 6.94942 15.7931 5.90914 15.391 4.93853C14.989 3.96793 14.3997 3.08601 13.6569 2.34315C12.914 1.60028 12.0321 1.011 11.0615 0.608964C10.0909 0.206926 9.05057 0 8 0C6.94942 0 5.90914 0.206926 4.93853 0.608964C3.96793 1.011 3.08601 1.60028 2.34315 2.34315C1.60028 3.08601 1.011 3.96793 0.608964 4.93853C0.206926 5.90914 -1.56548e-08 6.94942 0 8V8Z" fill="#F04C42"/>
<path d="M10.6669 11.4666C10.462 11.4666 10.2572 11.3893 10.1007 11.2328L7.434 8.56615C7.12096 8.2531 7.12096 7.74682 7.434 7.43571C7.74705 7.12267 8.25333 7.12267 8.56444 7.43571L11.2311 10.1024C11.5441 10.4154 11.5441 10.9217 11.2311 11.2328C11.0765 11.3893 10.8717 11.4666 10.6669 11.4666Z" fill="white"/>
<path d="M5.33368 11.4666C5.12885 11.4666 4.92402 11.3893 4.7675 11.2328C4.45445 10.9198 4.45445 10.4135 4.7675 10.1024L7.43416 7.43571C7.74721 7.12267 8.25349 7.12267 8.5646 7.43571C8.87764 7.74875 8.87764 8.25503 8.5646 8.56615L5.89793 11.2328C5.74334 11.3893 5.53851 11.4666 5.33368 11.4666V11.4666Z" fill="white"/>
<path d="M8.00018 8.8C7.79535 8.8 7.59052 8.72271 7.434 8.56619C7.12096 8.25314 7.12096 7.74686 7.434 7.43575L10.1007 4.76908C10.4137 4.45604 10.92 4.45604 11.2311 4.76908C11.5441 5.08213 11.5441 5.58841 11.2311 5.89952L8.56444 8.56619C8.40985 8.72271 8.20502 8.8 8.00018 8.8Z" fill="white"/>
<path d="M8.00035 8.8C7.79552 8.8 7.59069 8.72271 7.43416 8.56619L4.7675 5.89952C4.45445 5.58648 4.45445 5.0802 4.7675 4.76908C5.08054 4.45604 5.58682 4.45604 5.89793 4.76908L8.5646 7.43575C8.87764 7.7488 8.87764 8.25508 8.5646 8.56619C8.41001 8.72271 8.20518 8.8 8.00035 8.8Z" fill="white"/>
</svg>
