<svg width="200" height="200" viewBox="0 0 200 200" fill="none" xmlns="http://www.w3.org/2000/svg">
<path opacity="0.1" d="M176.78 105.32C171.2 96.64 182.36 79.32 182.36 79.32C187.14 60.38 158.45 65.91 158.45 65.91C158.45 65.91 123.91 74.59 130.55 58.81C140.91 35.94 109.83 42.25 109.83 42.25C72.36 48.56 50.83 59.6 31.71 81.69C12.59 103.78 28.53 104.56 38.88 110.09C49.23 115.62 34.1 138.49 34.1 138.49C34.1 138.49 22.1 161.36 50.04 162.94C58.04 162.94 76.35 154.26 79.54 163.73C82.48 172.49 92.29 181.87 105.84 175.56C111.578 172.85 116.937 169.401 121.78 165.3L164.78 153.47C173.91 150.224 181.555 143.779 186.3 135.33C194.31 121.1 182.36 114 176.78 105.32Z" fill="#00A2E6"/>
<path d="M136.82 93.3101C135.609 84.8906 131.404 77.1897 124.976 71.6194C118.547 66.0492 110.326 62.9829 101.82 62.9829C93.3139 62.9829 85.0929 66.0492 78.6644 71.6194C72.2358 77.1897 68.0307 84.8906 66.82 93.3101C61.6251 94.5194 56.9919 97.45 53.6732 101.626C50.3546 105.801 48.5455 110.976 48.54 116.31C48.4808 121.415 49.8863 126.43 52.59 130.76C53.8419 132.61 55.5287 134.125 57.5023 135.171C59.476 136.217 61.6762 136.763 63.91 136.76L133.61 137C136.186 137.017 138.74 136.517 141.12 135.53C149.12 132.17 155.12 125.67 155.12 116.3C155.111 110.965 153.298 105.79 149.976 101.616C146.653 97.4425 142.017 94.5151 136.82 93.3101ZM125.82 126.83C125.817 127.933 125.378 128.989 124.599 129.769C123.819 130.548 122.762 130.987 121.66 130.99H82C80.8975 130.987 79.8409 130.548 79.0614 129.769C78.2818 128.989 77.8426 127.933 77.84 126.83V119.83C77.8361 119.281 77.9407 118.736 78.1478 118.227C78.355 117.719 78.6606 117.256 79.0472 116.866C79.4337 116.475 79.8936 116.165 80.4003 115.953C80.9071 115.741 81.4507 115.631 82 115.63H121.64C122.742 115.633 123.799 116.072 124.579 116.851C125.358 117.631 125.797 118.688 125.8 119.79V126.79L125.82 126.83ZM125.82 108.72C125.817 109.823 125.378 110.879 124.599 111.659C123.819 112.438 122.762 112.877 121.66 112.88H82C80.8975 112.877 79.8409 112.438 79.0614 111.659C78.2818 110.879 77.8426 109.823 77.84 108.72V101.72C77.8361 101.171 77.9407 100.626 78.1478 100.117C78.355 99.6086 78.6606 99.1458 79.0472 98.7556C79.4337 98.3653 79.8936 98.0552 80.4003 97.8432C80.9071 97.6312 81.4507 97.5214 82 97.5201H121.64C122.742 97.5227 123.799 97.9618 124.579 98.7414C125.358 99.521 125.797 100.578 125.8 101.68V108.68L125.82 108.72ZM125.82 90.6101C125.817 91.7125 125.378 92.7691 124.599 93.5487C123.819 94.3283 122.762 94.7674 121.66 94.7701H82C80.8975 94.7674 79.8409 94.3283 79.0614 93.5487C78.2818 92.7691 77.8426 91.7125 77.84 90.6101V83.6101C77.8374 83.0616 77.943 82.518 78.1507 82.0104C78.3585 81.5028 78.6643 81.0412 79.0507 80.652C79.4372 80.2628 79.8966 79.9537 80.4027 79.7423C80.9087 79.5309 81.4515 79.4214 82 79.4201H121.64C122.742 79.4227 123.799 79.8618 124.579 80.6414C125.358 81.421 125.797 82.4776 125.8 83.5801V90.5801L125.82 90.6101Z" fill="#00A2E6"/>
<path d="M81.72 123.31C81.72 124.214 82.0793 125.082 82.7188 125.721C83.3583 126.361 84.2256 126.72 85.13 126.72C86.0344 126.72 86.9017 126.361 87.5412 125.721C88.1807 125.082 88.54 124.214 88.54 123.31C88.54 122.406 88.1807 121.538 87.5412 120.899C86.9017 120.259 86.0344 119.9 85.13 119.9C84.2256 119.9 83.3583 120.259 82.7188 120.899C82.0793 121.538 81.72 122.406 81.72 123.31Z" fill="#00A2E6"/>
<path d="M81.72 106.01C81.72 106.914 82.0793 107.782 82.7188 108.421C83.3583 109.061 84.2256 109.42 85.13 109.42C86.0344 109.42 86.9017 109.061 87.5412 108.421C88.1807 107.782 88.54 106.914 88.54 106.01C88.54 105.106 88.1807 104.238 87.5412 103.599C86.9017 102.959 86.0344 102.6 85.13 102.6C84.2256 102.6 83.3583 102.959 82.7188 103.599C82.0793 104.238 81.72 105.106 81.72 106.01Z" fill="#00A2E6"/>
<path d="M81.72 87.0999C81.72 88.0043 82.0793 88.8717 82.7188 89.5112C83.3583 90.1507 84.2256 90.5099 85.13 90.5099C86.0344 90.5099 86.9017 90.1507 87.5412 89.5112C88.1807 88.8717 88.54 88.0043 88.54 87.0999C88.54 86.1956 88.1807 85.3282 87.5412 84.6887C86.9017 84.0492 86.0344 83.6899 85.13 83.6899C84.2256 83.6899 83.3583 84.0492 82.7188 84.6887C82.0793 85.3282 81.72 86.1956 81.72 87.0999Z" fill="#00A2E6"/>
<path d="M24.95 58.91C24.95 60.0743 25.4125 61.1909 26.2358 62.0142C27.0591 62.8375 28.1757 63.3 29.34 63.3C30.5043 63.3 31.6209 62.8375 32.4442 62.0142C33.2675 61.1909 33.73 60.0743 33.73 58.91C33.73 57.7457 33.2675 56.6291 32.4442 55.8058C31.6209 54.9825 30.5043 54.52 29.34 54.52C28.1757 54.52 27.0591 54.9825 26.2358 55.8058C25.4125 56.6291 24.95 57.7457 24.95 58.91Z" fill="#00A2E6"/>
<path d="M170.53 25.17C170.53 26.3635 171.004 27.5081 171.848 28.352C172.692 29.1959 173.837 29.67 175.03 29.67C176.223 29.67 177.368 29.1959 178.212 28.352C179.056 27.5081 179.53 26.3635 179.53 25.17C179.53 23.9766 179.056 22.832 178.212 21.9881C177.368 21.1441 176.223 20.67 175.03 20.67C173.837 20.67 172.692 21.1441 171.848 21.9881C171.004 22.832 170.53 23.9766 170.53 25.17Z" fill="#00A2E6"/>
<path opacity="0.5" d="M182.68 102C182.68 102.743 182.975 103.455 183.5 103.98C184.025 104.505 184.737 104.8 185.48 104.8C186.223 104.8 186.935 104.505 187.46 103.98C187.985 103.455 188.28 102.743 188.28 102C188.28 101.257 187.985 100.545 187.46 100.02C186.935 99.4949 186.223 99.2 185.48 99.2C184.737 99.2 184.025 99.4949 183.5 100.02C182.975 100.545 182.68 101.257 182.68 102Z" fill="#00A2E6"/>
<path d="M24.39 114.17C24.39 114.525 24.5312 114.866 24.7825 115.117C25.0338 115.369 25.3746 115.51 25.73 115.51C26.0854 115.51 26.4262 115.369 26.6775 115.117C26.9288 114.866 27.07 114.525 27.07 114.17C27.07 113.815 26.9288 113.474 26.6775 113.222C26.4262 112.971 26.0854 112.83 25.73 112.83C25.3746 112.83 25.0338 112.971 24.7825 113.222C24.5312 113.474 24.39 113.815 24.39 114.17Z" fill="#00A2E6"/>
<path d="M55.38 52.72C55.38 53.2001 55.5707 53.6605 55.9101 53.9999C56.2496 54.3393 56.71 54.53 57.19 54.53C57.67 54.53 58.1304 54.3393 58.4699 53.9999C58.8093 53.6605 59 53.2001 59 52.72C59 52.24 58.8093 51.7796 58.4699 51.4402C58.1304 51.1007 57.67 50.91 57.19 50.91C56.71 50.91 56.2496 51.1007 55.9101 51.4402C55.5707 51.7796 55.38 52.24 55.38 52.72Z" fill="#00A2E6"/>
<path d="M171.91 79.45C171.91 79.6549 171.95 79.8577 172.029 80.047C172.107 80.2363 172.222 80.4082 172.367 80.5531C172.512 80.698 172.684 80.8129 172.873 80.8913C173.062 80.9697 173.265 81.01 173.47 81.01C173.675 81.01 173.878 80.9697 174.067 80.8913C174.256 80.8129 174.428 80.698 174.573 80.5531C174.718 80.4082 174.833 80.2363 174.911 80.047C174.99 79.8577 175.03 79.6549 175.03 79.45C175.03 79.2451 174.99 79.0423 174.911 78.853C174.833 78.6638 174.718 78.4918 174.573 78.3469C174.428 78.2021 174.256 78.0872 174.067 78.0088C173.878 77.9304 173.675 77.89 173.47 77.89C173.265 77.89 173.062 77.9304 172.873 78.0088C172.684 78.0872 172.512 78.2021 172.367 78.3469C172.222 78.4918 172.107 78.6638 172.029 78.853C171.95 79.0423 171.91 79.2451 171.91 79.45Z" fill="#00A2E6"/>
<path d="M135.27 40.48H142.61C142.923 40.48 143.08 40.6366 143.08 40.95V41.49C143.08 41.8033 142.923 41.96 142.61 41.96H135.27C134.957 41.96 134.8 41.8033 134.8 41.49V40.95C134.8 40.6366 134.957 40.48 135.27 40.48Z" fill="#00A2E6"/>
<path d="M138.19 44.89V37.55C138.19 37.2366 138.347 37.08 138.66 37.08H139.2C139.513 37.08 139.67 37.2366 139.67 37.55V44.89C139.67 45.2033 139.513 45.36 139.2 45.36H138.66C138.347 45.36 138.19 45.2033 138.19 44.89Z" fill="#00A2E6"/>
<path opacity="0.5" d="M5.18 92.15H12.52C12.8333 92.15 12.99 92.3067 12.99 92.62V93.16C12.99 93.4734 12.8333 93.63 12.52 93.63H5.18C4.86667 93.63 4.71 93.4734 4.71 93.16V92.62C4.71 92.3067 4.86667 92.15 5.18 92.15Z" fill="#00A2E6"/>
<path opacity="0.5" d="M8.11 96.56V89.22C8.11 88.9067 8.26667 88.75 8.58 88.75H9.12C9.43333 88.75 9.59 88.9067 9.59 89.22V96.56C9.59 96.8733 9.43333 97.03 9.12 97.03H8.58C8.26667 97.03 8.11 96.8733 8.11 96.56Z" fill="#00A2E6"/>
<path d="M186.53 133.03H193.87C194.183 133.03 194.34 133.187 194.34 133.5V134.04C194.34 134.353 194.183 134.51 193.87 134.51H186.53C186.217 134.51 186.06 134.353 186.06 134.04V133.5C186.06 133.187 186.217 133.03 186.53 133.03Z" fill="#00A2E6"/>
<path d="M189.45 137.44V130.1C189.45 129.787 189.607 129.63 189.92 129.63H190.46C190.773 129.63 190.93 129.787 190.93 130.1V137.44C190.93 137.753 190.773 137.91 190.46 137.91H189.92C189.607 137.91 189.45 137.753 189.45 137.44Z" fill="#00A2E6"/>
<path d="M144 157.19H60.17C59.7138 157.19 59.2763 157.009 58.9538 156.686C58.6312 156.364 58.45 155.926 58.45 155.47C58.45 155.014 58.6312 154.576 58.9538 154.254C59.2763 153.931 59.7138 153.75 60.17 153.75H144C144.456 153.75 144.894 153.931 145.216 154.254C145.539 154.576 145.72 155.014 145.72 155.47C145.72 155.926 145.539 156.364 145.216 156.686C144.894 157.009 144.456 157.19 144 157.19ZM163.45 157.19H150.2C149.974 157.19 149.75 157.146 149.542 157.059C149.333 156.973 149.143 156.846 148.984 156.686C148.824 156.527 148.697 156.337 148.611 156.128C148.524 155.92 148.48 155.696 148.48 155.47C148.48 155.244 148.524 155.02 148.611 154.812C148.697 154.603 148.824 154.413 148.984 154.254C149.143 154.094 149.333 153.967 149.542 153.881C149.75 153.794 149.974 153.75 150.2 153.75H163.45C163.906 153.75 164.344 153.931 164.666 154.254C164.989 154.576 165.17 155.014 165.17 155.47C165.17 155.926 164.989 156.364 164.666 156.686C164.344 157.009 163.906 157.19 163.45 157.19ZM53.94 157.19H50.94C50.4838 157.19 50.0463 157.009 49.7238 156.686C49.4012 156.364 49.22 155.926 49.22 155.47C49.22 155.014 49.4012 154.576 49.7238 154.254C50.0463 153.931 50.4838 153.75 50.94 153.75H53.94C54.3962 153.75 54.8337 153.931 55.1562 154.254C55.4788 154.576 55.66 155.014 55.66 155.47C55.66 155.926 55.4788 156.364 55.1562 156.686C54.8337 157.009 54.3962 157.19 53.94 157.19Z" fill="#00A2E6"/>
<path d="M72.5 81.5L83 73.5H107.5L126.5 77.5L133 92.5V132.5H72.5V107V81.5Z" fill="#00A2E6"/>
<rect x="60" y="101" width="80" height="29" rx="6" fill="#CEDFE5"/>
<path d="M63 106.5C63 107.163 63.2634 107.799 63.7322 108.268C64.2011 108.737 64.837 109 65.5 109C66.163 109 66.7989 108.737 67.2678 108.268C67.7366 107.799 68 107.163 68 106.5C68 105.837 67.7366 105.201 67.2678 104.732C66.7989 104.263 66.163 104 65.5 104C64.837 104 64.2011 104.263 63.7322 104.732C63.2634 105.201 63 105.837 63 106.5Z" fill="#00A2E6"/>
<rect x="71" y="105" width="11" height="3" rx="1.5" fill="#00A2E6"/>
<rect x="129" y="104" width="8" height="3" rx="1.5" fill="#00A2E6"/>
<rect x="63" y="113" width="27" height="3" rx="1.5" fill="#00A2E6"/>
<rect x="63" y="118" width="50" height="3" rx="1.5" fill="#00A2E6"/>
<rect x="63" y="123" width="74" height="3" rx="1.5" fill="#00A2E6"/>
</svg>
