<svg width="16" height="14" viewBox="0 0 16 14" fill="none" xmlns="http://www.w3.org/2000/svg">
    <path
        d="M14.048 14H1.952C0.874667 14 0 13.0989 0 11.989V9.27472C0 8.96703 0.256 8.69231 0.544 8.72528C1.504 8.72528 2.25067 7.95604 2.25067 7C2.25067 6.04396 1.504 5.27473 0.576 5.27473C0.277333 5.27473 0 5.03297 0 4.72528V2.01099C0 0.901099 0.874667 0 1.952 0H14.0373C15.1253 0 16 0.901099 16 2.01099V4.72528C16 5.03297 15.7653 5.27473 15.4667 5.27473C14.5387 5.27473 13.792 6.04396 13.792 7C13.792 7.95604 14.5387 8.72528 15.4667 8.72528C15.7653 8.72528 16 8.96703 16 9.27472V11.989C16 13.0989 15.1253 14 14.048 14ZM1.06667 9.78022V11.989C1.06667 12.4945 1.46133 12.9011 1.952 12.9011H14.0373C14.528 12.9011 14.9227 12.4945 14.9227 11.989V9.76923C13.664 9.51648 12.7147 8.37363 12.7147 7C12.7147 5.62637 13.6747 4.48352 14.9333 4.23077V2.01099C14.9333 1.50549 14.528 1.0989 14.048 1.0989H1.952C1.46133 1.0989 1.06667 1.50549 1.06667 2.01099V4.23077C2.35733 4.48352 3.31733 5.62637 3.31733 7C3.31733 8.38462 2.34667 9.53846 1.06667 9.78022Z"
        fill="#999999" />
</svg>
