<svg width="16" height="17" viewBox="0 0 16 17" fill="none" xmlns="http://www.w3.org/2000/svg">
<path d="M7.24096 1.08992C8.60614 1.08992 9.70922 2.19074 9.70922 3.55313C9.70922 4.91553 8.60614 6.01635 7.24096 6.01635C5.87577 6.01635 4.7727 4.90463 4.7727 3.55313C4.7727 2.20163 5.88669 1.08992 7.24096 1.08992ZM7.24096 0C5.27509 0 3.68055 1.59128 3.68055 3.55313C3.68055 5.51499 5.27509 7.10627 7.24096 7.10627C9.20683 7.10627 10.8014 5.51499 10.8014 3.55313C10.8014 1.59128 9.20683 0 7.24096 0Z" fill="#999999"/>
<path d="M8.40955 16.0001C8.71114 16.0001 8.95563 15.7561 8.95563 15.4551C8.95563 15.1541 8.71114 14.9102 8.40955 14.9102C8.10797 14.9102 7.86348 15.1541 7.86348 15.4551C7.86348 15.7561 8.10797 16.0001 8.40955 16.0001Z" fill="#999999"/>
<path d="M10.6485 9.3404C10.9501 9.3404 11.1945 9.09642 11.1945 8.79545C11.1945 8.49447 10.9501 8.25049 10.6485 8.25049C10.3469 8.25049 10.1024 8.49447 10.1024 8.79545C10.1024 9.09642 10.3469 9.3404 10.6485 9.3404Z" fill="#999999"/>
<path d="M7.36109 7.40039C3.29829 7.40039 0 10.6919 0 14.7464C0 14.7573 0 14.7791 0 14.79V16.0107H8.45324V14.9208H1.10307C1.10307 14.8772 1.09215 14.7682 1.09215 14.7573C1.09215 11.3132 3.89898 8.50121 7.36109 8.50121C8.45324 8.50121 9.49078 8.77369 10.4082 9.28595L10.9433 8.33772C9.8512 7.72737 8.63891 7.40039 7.36109 7.40039Z" fill="#999999"/>
<path d="M15.4539 11.7056H10.299C9.99317 11.7056 9.7529 11.4659 9.7529 11.1607C9.7529 10.8555 9.99317 10.6157 10.299 10.6157H15.4539C15.7597 10.6157 16 10.8555 16 11.1607C16 11.4659 15.7597 11.7056 15.4539 11.7056Z" fill="#D6D6D6"/>
<path d="M15.4539 13.8526H10.299C9.99317 13.8526 9.7529 13.6128 9.7529 13.3077C9.7529 13.0025 9.99317 12.7627 10.299 12.7627H15.4539C15.7597 12.7627 16 13.0025 16 13.3077C16 13.6128 15.7597 13.8526 15.4539 13.8526Z" fill="#D6D6D6"/>
<path d="M15.4539 16.0001H10.299C9.99317 16.0001 9.7529 15.7603 9.7529 15.4551C9.7529 15.1499 9.99317 14.9102 10.299 14.9102H15.4539C15.7597 14.9102 16 15.1499 16 15.4551C16 15.7603 15.7597 16.0001 15.4539 16.0001Z" fill="#D6D6D6"/>
</svg>
