<svg width="24" height="24" viewBox="0 0 24 24" fill="none" xmlns="http://www.w3.org/2000/svg">
<path d="M12.76 22.5H4.59998C3.49998 22.5 2.59998 21.6 2.59998 20.5V3.5C2.59998 2.4 3.49998 1.5 4.59998 1.5H16.28C17.38 1.5 18.28 2.4 18.28 3.5V12.65" stroke="white" stroke-miterlimit="10" stroke-linecap="round"/>
<path d="M17.77 22.5C19.8024 22.5 21.45 20.8524 21.45 18.82C21.45 16.7876 19.8024 15.14 17.77 15.14C15.7376 15.14 14.09 16.7876 14.09 18.82C14.09 20.8524 15.7376 22.5 17.77 22.5Z" stroke="white" stroke-miterlimit="10"/>
<path d="M5.66003 5.04004H14.79" stroke="white" stroke-miterlimit="10" stroke-linecap="round"/>
<path d="M5.66003 10.28H14.79" stroke="white" stroke-miterlimit="10" stroke-linecap="round"/>
<path d="M5.66003 15.52H11.19" stroke="white" stroke-miterlimit="10" stroke-linecap="round"/>
<path d="M17.77 16.66V18.82H18.95" stroke="white" stroke-miterlimit="10" stroke-linecap="round" stroke-linejoin="round"/>
</svg>
