<svg width="40" height="40" viewBox="0 0 40 40" fill="none" xmlns="http://www.w3.org/2000/svg">
<circle cx="20" cy="20" r="20" fill="white"/>
<path d="M23.5793 17.3878C23.6978 17.3878 23.8164 17.3917 23.9329 17.3975C23.4427 14.9054 20.7524 13 17.5056 13C13.9133 13 11 15.3353 11 18.2166C11 19.787 11.876 21.2025 13.2482 22.1591C13.3048 22.1976 13.351 22.2486 13.3828 22.3079C13.4146 22.3673 13.4312 22.4331 13.4311 22.4999C13.4311 22.5463 13.421 22.5889 13.409 22.6335C13.2985 23.0266 13.1237 23.6559 13.1156 23.6849C13.1016 23.7353 13.0815 23.7856 13.0815 23.8379C13.0815 23.9521 13.1779 24.047 13.2985 24.047C13.3447 24.047 13.3829 24.0296 13.423 24.0083L14.8475 23.2163C14.954 23.1563 15.0685 23.1195 15.1931 23.1195C15.2574 23.1195 15.3217 23.1292 15.384 23.1466C16.049 23.3306 16.7663 23.4332 17.5076 23.4332C17.6282 23.4332 17.7467 23.4313 17.8653 23.4254C17.7226 23.0188 17.6463 22.5909 17.6463 22.1474C17.6463 19.5178 20.3024 17.3878 23.5793 17.3878V17.3878ZM19.6755 15.7129C20.1537 15.7129 20.5435 16.0866 20.5435 16.5474C20.5435 17.0083 20.1557 17.382 19.6755 17.382C19.1973 17.382 18.8076 17.0083 18.8076 16.5474C18.8076 16.0866 19.1973 15.7129 19.6755 15.7129ZM15.3378 17.382C14.8596 17.382 14.4698 17.0083 14.4698 16.5474C14.4698 16.0866 14.8576 15.7129 15.3378 15.7129C15.8179 15.7129 16.2057 16.0866 16.2057 16.5474C16.2057 17.0083 15.8159 17.382 15.3378 17.382ZM27.1275 25.4296C28.2707 24.6318 29 23.4545 29 22.1436C29 19.7425 26.5729 17.7964 23.5773 17.7964C20.5837 17.7964 18.1546 19.7425 18.1546 22.1436C18.1546 24.5447 20.5816 26.4907 23.5773 26.4907C24.1961 26.4907 24.7948 26.4055 25.3474 26.2526C25.3996 26.2371 25.4518 26.2293 25.5061 26.2293C25.6106 26.2293 25.705 26.2603 25.7934 26.3087L26.9808 26.9671C27.015 26.9864 27.0471 27 27.0853 27C27.1091 27.0002 27.1327 26.9958 27.1548 26.9872C27.1768 26.9785 27.1969 26.9658 27.2139 26.9496C27.2306 26.9333 27.2438 26.914 27.2528 26.8927C27.2618 26.8714 27.2663 26.8487 27.2661 26.8257C27.2661 26.7831 27.248 26.7405 27.238 26.6979C27.2319 26.6747 27.0853 26.1499 26.9929 25.8207C26.9828 25.784 26.9748 25.7472 26.9748 25.7104C26.9768 25.5961 27.0371 25.4935 27.1275 25.4296V25.4296ZM21.7731 21.4503C21.3733 21.4503 21.0498 21.1386 21.0498 20.7552C21.0498 20.3718 21.3733 20.06 21.7731 20.06C22.1729 20.06 22.4964 20.3718 22.4964 20.7552C22.4964 21.1386 22.1709 21.4503 21.7731 21.4503ZM25.3875 21.4503C24.9877 21.4503 24.6642 21.1386 24.6642 20.7552C24.6642 20.3718 24.9877 20.06 25.3875 20.06C25.7874 20.06 26.1108 20.3718 26.1108 20.7552C26.1099 20.9396 26.0333 21.1162 25.8978 21.2464C25.7623 21.3766 25.5789 21.4499 25.3875 21.4503V21.4503Z" fill="white"/>
<path d="M23.5793 17.3878C23.6978 17.3878 23.8164 17.3917 23.9329 17.3975C23.4427 14.9054 20.7524 13 17.5056 13C13.9133 13 11 15.3353 11 18.2166C11 19.787 11.876 21.2025 13.2482 22.1591C13.3048 22.1976 13.351 22.2486 13.3828 22.3079C13.4146 22.3673 13.4312 22.4331 13.4311 22.4999C13.4311 22.5463 13.421 22.5889 13.409 22.6335C13.2985 23.0266 13.1237 23.6559 13.1156 23.6849C13.1016 23.7353 13.0815 23.7856 13.0815 23.8379C13.0815 23.9521 13.1779 24.047 13.2985 24.047C13.3447 24.047 13.3829 24.0296 13.423 24.0083L14.8475 23.2163C14.954 23.1563 15.0685 23.1195 15.1931 23.1195C15.2574 23.1195 15.3217 23.1292 15.384 23.1466C16.049 23.3306 16.7663 23.4332 17.5076 23.4332C17.6282 23.4332 17.7467 23.4313 17.8653 23.4254C17.7226 23.0188 17.6463 22.5909 17.6463 22.1474C17.6463 19.5178 20.3024 17.3878 23.5793 17.3878V17.3878ZM19.6755 15.7129C20.1537 15.7129 20.5435 16.0866 20.5435 16.5474C20.5435 17.0083 20.1557 17.382 19.6755 17.382C19.1973 17.382 18.8076 17.0083 18.8076 16.5474C18.8076 16.0866 19.1973 15.7129 19.6755 15.7129ZM15.3378 17.382C14.8596 17.382 14.4698 17.0083 14.4698 16.5474C14.4698 16.0866 14.8576 15.7129 15.3378 15.7129C15.8179 15.7129 16.2057 16.0866 16.2057 16.5474C16.2057 17.0083 15.8159 17.382 15.3378 17.382ZM27.1275 25.4296C28.2707 24.6318 29 23.4545 29 22.1436C29 19.7425 26.5729 17.7964 23.5773 17.7964C20.5837 17.7964 18.1546 19.7425 18.1546 22.1436C18.1546 24.5447 20.5816 26.4907 23.5773 26.4907C24.1961 26.4907 24.7948 26.4055 25.3474 26.2526C25.3996 26.2371 25.4518 26.2293 25.5061 26.2293C25.6106 26.2293 25.705 26.2603 25.7934 26.3087L26.9808 26.9671C27.015 26.9864 27.0471 27 27.0853 27C27.1091 27.0002 27.1327 26.9958 27.1548 26.9872C27.1768 26.9785 27.1969 26.9658 27.2139 26.9496C27.2306 26.9333 27.2438 26.914 27.2528 26.8927C27.2618 26.8714 27.2663 26.8487 27.2661 26.8257C27.2661 26.7831 27.248 26.7405 27.238 26.6979C27.2319 26.6747 27.0853 26.1499 26.9929 25.8207C26.9828 25.784 26.9748 25.7472 26.9748 25.7104C26.9768 25.5961 27.0371 25.4935 27.1275 25.4296V25.4296ZM21.7731 21.4503C21.3733 21.4503 21.0498 21.1386 21.0498 20.7552C21.0498 20.3718 21.3733 20.06 21.7731 20.06C22.1729 20.06 22.4964 20.3718 22.4964 20.7552C22.4964 21.1386 22.1709 21.4503 21.7731 21.4503ZM25.3875 21.4503C24.9877 21.4503 24.6642 21.1386 24.6642 20.7552C24.6642 20.3718 24.9877 20.06 25.3875 20.06C25.7874 20.06 26.1108 20.3718 26.1108 20.7552C26.1099 20.9396 26.0333 21.1162 25.8978 21.2464C25.7623 21.3766 25.5789 21.4499 25.3875 21.4503V21.4503Z" fill="#00CA0C"/>
</svg>
