<svg width="14" height="16" viewBox="0 0 14 16" fill="none" xmlns="http://www.w3.org/2000/svg">
<path d="M4.76209 0.429294C4.72671 0.348649 4.67543 0.273076 4.60791 0.207264C4.40308 0.00770011 4.10641 -0.0476942 3.85048 0.0409004C3.78921 0.0621205 3.73038 0.0916745 3.67561 0.129404C3.64228 0.152368 3.61041 0.178186 3.58057 0.207264C3.55074 0.236343 0.212767 3.5032 0.212767 3.5032C-0.0709107 3.77958 -0.0709339 4.2277 0.212767 4.50413C0.496444 4.78053 0.956409 4.78053 1.24011 4.50413L3.36778 2.43117L3.36776 15.2922C3.36776 15.6831 3.69302 16 4.09423 16C4.49543 16 4.82067 15.6831 4.82064 15.2922L4.82067 0.70776C4.82067 0.61287 4.80103 0.518002 4.76209 0.429294Z" fill="#444444"/>
<path d="M13.7872 11.4959C13.5035 11.2195 13.0436 11.2195 12.7599 11.4959L10.6322 13.5688L10.6322 0.707783C10.6322 0.316875 10.307 -2.26378e-05 9.90576 1.21286e-09C9.50455 1.21286e-09 9.17932 0.316875 9.17936 0.70776L9.17931 15.2922C9.17936 15.3871 9.19898 15.482 9.23794 15.5707C9.27329 15.6514 9.32457 15.7269 9.39212 15.7927C9.59693 15.9923 9.8936 16.0477 10.1495 15.9591C10.2108 15.9379 10.2697 15.9083 10.3244 15.8706C10.3577 15.8476 10.3896 15.8218 10.4195 15.7927C10.4493 15.7637 13.7873 12.4968 13.7873 12.4968C14.0709 12.2204 14.0709 11.7723 13.7872 11.4959Z" fill="#444444"/>
</svg>
