<svg width="40" height="40" viewBox="0 0 40 40" fill="none" xmlns="http://www.w3.org/2000/svg">
<circle cx="20" cy="20" r="20" fill="#00AAEF"/>
<circle cx="20" cy="20" r="20" fill="white"/>
<circle cx="20" cy="20" r="11" fill="#00AAEF"/>
<path d="M15.0058 20.8275C14.5196 20.8766 13.6038 21.0902 13.1054 21.5297C11.6076 22.831 12.5038 25.2127 15.5362 25.2127C17.2991 25.2127 19.0596 24.0906 20.442 22.2908C18.4728 21.3357 16.8056 20.6507 15.0058 20.8275ZM26.3127 22.4725C28.7705 23.2926 30.1112 23.5283 30.4058 23.5725C30.8008 22.4229 31.0016 21.2156 31 20C31 13.9254 26.0745 9 20 9C13.9254 9 9 13.9254 9 20C9 26.0746 13.9254 31 20 31C23.8279 31 27.1991 29.0431 29.1707 26.077C27.3145 25.3453 23.9261 23.99 22.1288 23.1281C20.4125 25.2324 18.1978 26.5116 15.8996 26.5116C12.0103 26.5116 10.6917 23.1208 12.5308 20.8888C12.931 20.4027 13.6161 19.9386 14.6743 19.6759C16.3317 19.2708 18.9712 19.9288 21.4437 20.7415C21.8882 19.9239 22.2638 19.0252 22.5413 18.0676H14.9199V17.2991H18.8484V15.9192H14.09V15.1507H18.8484V13.1839C18.8484 13.1839 18.8484 12.8525 19.1848 12.8525H21.1049V15.1507H25.8118V15.9192H21.1074V17.2991H24.9475C24.5792 18.7993 24.0219 20.1817 23.3221 21.3946C24.4884 21.8145 25.5344 22.2123 26.3127 22.4725Z" fill="white"/>
</svg>
