<svg width="16" height="16" viewBox="0 0 16 16" fill="none" xmlns="http://www.w3.org/2000/svg">
<g clip-path="url(#clip0)">
<path d="M0 8C0 10.1217 0.842855 12.1566 2.34315 13.6569C3.84344 15.1571 5.87827 16 8 16C10.1217 16 12.1566 15.1571 13.6569 13.6569C15.1571 12.1566 16 10.1217 16 8C16 5.87827 15.1571 3.84344 13.6569 2.34315C12.1566 0.842855 10.1217 0 8 0C5.87827 0 3.84344 0.842855 2.34315 2.34315C0.842855 3.84344 0 5.87827 0 8H0Z" fill="#46E2A9"/>
<path d="M11.0765 5.01714C11.2401 4.8574 11.46 4.76842 11.6887 4.76942C11.9173 4.77042 12.1364 4.86131 12.2986 5.02248C12.4609 5.18365 12.5532 5.40215 12.5557 5.6308C12.5582 5.85946 12.4706 6.07992 12.3119 6.24457L7.60336 10.9829C7.26393 11.3246 6.71193 11.3257 6.37021 10.984L3.69021 8.30514C3.52684 8.14177 3.43506 7.92019 3.43506 7.68914C3.43506 7.4581 3.52684 7.23651 3.69021 7.07314C3.85359 6.90977 4.07517 6.81799 4.30621 6.81799C4.53726 6.81799 4.75884 6.90977 4.92221 7.07314L6.98279 9.136L11.0742 5.016L11.0765 5.01714Z" fill="white"/>
</g>
<defs>
<clipPath id="clip0">
<rect width="16" height="16" fill="white"/>
</clipPath>
</defs>
</svg>
