<svg width="16" height="16" viewBox="0 0 16 16" fill="none" xmlns="http://www.w3.org/2000/svg">
<path d="M11.6999 9.21707C11.6999 8.97069 11.5 8.7691 11.2536 8.7691H9.44889C9.32409 8.7691 9.2073 8.7083 9.13691 8.60591C9.03131 8.45552 8.96572 8.27633 8.94652 8.09074C8.94492 8.07474 8.94492 8.05874 8.94492 8.04114C8.95132 7.79956 9.05691 6.73563 9.41369 6.32125C9.70007 5.95007 9.86806 5.4909 9.88566 5.00453C9.88246 4.54696 9.68087 4.09099 9.33049 3.76781C8.98172 3.44623 8.51134 3.28144 8.03777 3.31664C8.01858 3.31824 7.99938 3.31824 7.98178 3.31664C7.50501 3.27984 7.02984 3.44783 6.68106 3.77261C6.33068 4.09899 6.13069 4.55976 6.13229 5.03813C6.15149 5.5069 6.31948 5.96447 6.61706 6.34845C6.96584 6.75162 7.06823 7.81876 7.07463 8.06194C7.07463 8.07634 7.07463 8.09074 7.07303 8.10354C7.05704 8.28913 6.99144 8.46832 6.88105 8.62351C6.80905 8.7259 6.69226 8.7851 6.56907 8.7851H4.76278C4.51639 8.7851 4.31641 8.98509 4.31641 9.23307V10.2026H11.6999V9.21707Z" fill="#FCC63C"/>
<path d="M8.0011 0C3.65737 0.0047997 0.110393 3.46698 0 7.80751V8.19149C0.105593 12.5832 3.73257 16.0678 8.12589 15.999C12.5192 15.9302 16.0342 12.3304 15.999 7.9387C15.9638 3.54378 12.3944 0.00159991 8.0011 0ZM3.55178 9.23622C3.55178 8.56906 4.09414 8.0251 4.7629 8.0251H6.30681C6.28601 7.62352 6.14842 6.97876 6.02522 6.83477C5.61565 6.3084 5.39326 5.69884 5.36766 5.05568C5.36606 4.35173 5.65405 3.68617 6.15961 3.2158C6.65718 2.75183 7.32914 2.51184 8.0091 2.55504C8.68426 2.51184 9.35301 2.75023 9.84898 3.2078C10.353 3.67337 10.6457 4.33413 10.6489 5.01729C10.6249 5.67964 10.4025 6.29241 10.0042 6.80437C9.87138 6.95956 9.73219 7.60272 9.70979 8.0043H11.2537C11.9209 8.0043 12.4648 8.54827 12.4648 9.21542V10.5849C12.4648 10.7961 12.2936 10.9673 12.0824 10.9673H3.93415C3.72297 10.9673 3.55178 10.7961 3.55178 10.5849V9.23622ZM12.0824 12.4888H3.91655C3.70537 12.4888 3.53418 12.3176 3.53418 12.1064C3.53418 11.8953 3.70537 11.7241 3.91655 11.7241H12.0824C12.2936 11.7241 12.4648 11.8953 12.4648 12.1064C12.4648 12.3176 12.2936 12.4888 12.0824 12.4888Z" fill="#FCC63C"/>
</svg>
