<svg width="60" height="60" viewBox="0 0 60 60" fill="none" xmlns="http://www.w3.org/2000/svg">
<circle cx="30" cy="30" r="30" fill="#FCC63C"/>
<g clip-path="url(#clip0)">
<path d="M22.0614 21.3923C20.9938 20.3247 20.3266 18.4564 20.3266 17.2553C20.3266 13.2518 24.9974 11.25 29.8017 11.25C40.3444 11.25 39.2767 18.7233 39.2767 17.2553C39.2767 18.5899 38.6095 20.4582 37.5419 21.5258C38.2091 21.7927 39.0098 22.1931 39.5437 22.5934C40.0775 22.9938 40.2109 23.661 39.8106 24.1948C39.4102 24.7286 38.7429 24.8621 38.2091 24.4617C37.1415 23.7945 35.9405 23.2607 34.8728 22.7269C34.4725 22.5934 34.2056 22.1931 34.0721 21.6593C34.0721 21.2589 34.339 20.7251 34.7394 20.5916C36.2074 19.7909 36.7412 18.1895 36.7412 17.1219C36.7412 15.387 34.339 13.7856 29.9351 13.7856C25.3977 13.7856 23.1291 15.5205 23.1291 17.1219C23.1291 18.1895 23.6629 19.7909 25.1308 20.5916C25.5312 20.8585 25.7981 21.2589 25.7981 21.6593C25.7981 22.0596 25.5312 22.46 24.9974 22.7269C19.7928 24.7286 14.5881 29.6664 14.5881 36.7393C14.5881 41.0098 18.3248 46.081 30.0686 46.081C41.8123 46.081 45.549 41.0098 45.549 36.7393C45.549 34.4706 45.1486 32.3354 43.9476 30.3336C43.6807 29.7998 43.8141 28.9991 44.4814 28.7322C45.0152 28.4653 45.8159 28.5988 46.0828 29.266C47.4173 31.6681 48.0846 34.0703 48.0846 36.8728C48.0846 43.0116 42.3461 48.75 30.0686 48.75C17.791 48.75 11.7856 42.8781 11.7856 36.7393C11.7856 28.1984 18.1913 23.3941 22.0614 21.3923Z" fill="white"/>
<path d="M43.0135 27.2636C42.7466 27.3971 42.4797 27.5305 42.2128 27.5305C41.9459 27.5305 41.5455 27.3971 41.2786 27.1302L40.4779 26.3295C39.9441 25.9291 39.9441 25.1284 40.4779 24.7281C40.8782 24.3277 41.679 24.1942 42.2128 24.7281L43.0135 25.5288C43.5473 26.0626 43.5473 26.8633 43.0135 27.2636ZM35.5402 35.938C36.2074 35.938 36.7412 36.6053 36.7412 37.2725C36.7412 37.9398 36.2074 38.4736 35.5402 38.4736H30.7359V41.543C30.7359 42.2103 30.0686 42.7441 29.4014 42.7441C28.7341 42.7441 28.0669 42.2103 28.0669 41.543V38.4736H23.2626C22.5953 38.4736 22.0615 37.9398 22.0615 37.2725C22.0615 36.6053 22.5953 35.938 23.2626 35.938H28.0669V33.4024H23.2626C22.5953 33.4024 22.0615 32.8686 22.0615 32.2014C22.0615 31.5341 22.5953 30.8668 23.2626 30.8668H26.4654L23.5295 28.0644C22.9957 27.5305 22.9957 26.7298 23.5295 26.196C24.0633 25.6622 24.864 25.6622 25.3978 26.196L29.4014 30.1996L33.5384 26.196C34.0722 25.6622 34.8729 25.6622 35.4067 26.196C35.9405 26.7298 35.9405 27.5305 35.4067 28.0644L32.4708 31.0003H35.6736C36.3409 31.0003 36.8747 31.6676 36.8747 32.3348C36.8747 33.0021 36.3409 33.5359 35.6736 33.5359H30.8694V36.0715L35.5402 35.938Z" fill="white"/>
</g>
<defs>
<clipPath id="clip0">
<rect width="37.5" height="37.5" fill="white" transform="translate(11.25 11.25)"/>
</clipPath>
</defs>
</svg>
