<svg width="16" height="16" viewBox="0 0 16 16" fill="none" xmlns="http://www.w3.org/2000/svg">
<path d="M10.2098 9.07812L15.0008 10.6587C15.0008 10.6587 14.8276 11.1069 14.6108 11.5124C14.3939 11.918 14.1121 12.345 14.1121 12.345L9.51724 10.1456C9.51724 10.1456 8.64987 11.1065 7.7614 11.5335C6.87251 11.9604 5.85368 12.2167 4.77009 11.9604C3.66457 11.7038 2.8841 10.9782 3.01446 9.67567C3.14461 8.37296 4.53153 7.90328 5.68029 7.90328C6.82906 7.90328 8.99665 8.65085 8.99665 8.65085C8.99665 8.65085 9.16963 8.2453 9.36496 7.77561C9.53855 7.30593 9.5818 6.92169 9.5818 6.92169H4.96459V6.45201H7.19715V5.55526L4.40117 5.57698V4.97901H7.23998V3.65479H8.71402V5.00012H11.7053V5.59809L8.71402 5.6194V6.45159L11.1851 6.47291C11.1851 6.47291 11.1417 6.94301 10.8168 7.79693C10.5131 8.65126 10.2098 9.07812 10.2098 9.07812ZM5.48497 11.2347C7.11067 11.2347 8.47586 9.59022 8.47586 9.59022C8.47586 9.59022 6.61222 8.54387 5.2464 8.62933C3.88079 8.71499 3.53401 9.33406 3.53401 9.88941C3.53401 10.4446 3.85948 11.2347 5.48518 11.2347H5.48497Z" fill="#D6D6D6"/>
<path fill-rule="evenodd" clip-rule="evenodd" d="M9.7556 14.778C9.19458 14.9229 8.60629 15 8 15C4.13401 15 1 11.866 1 8C1 4.13401 4.13401 1 8 1C11.866 1 15 4.13401 15 8C15 8.16812 14.9941 8.33485 14.9824 8.5H15.9846C15.9948 8.33464 16 8.16792 16 8C16 3.58172 12.4183 0 8 0C3.58172 0 0 3.58172 0 8C0 12.4183 3.58172 16 8 16C8.67335 16 9.32726 15.9168 9.95203 15.7602L9.7556 14.778Z" fill="#999999"/>
<circle cx="15.49" cy="8.5" r="0.5" fill="#999999"/>
<circle cx="9.84009" cy="15.27" r="0.5" fill="#999999"/>
</svg>
