<svg width="16" height="16" viewBox="0 0 16 16" fill="none" xmlns="http://www.w3.org/2000/svg">
<path d="M14.048 15H1.952C0.874667 15 0 14.0989 0 12.989V10.2747C0 9.96703 0.256 9.69231 0.544 9.72528C1.504 9.72528 2.25067 8.95604 2.25067 8C2.25067 7.04396 1.504 6.27473 0.576 6.27473C0.277333 6.27473 0 6.03297 0 5.72528V3.01099C0 1.9011 0.874667 1 1.952 1H14.0373C15.1253 1 16 1.9011 16 3.01099V5.72528C16 6.03297 15.7653 6.27473 15.4667 6.27473C14.5387 6.27473 13.792 7.04396 13.792 8C13.792 8.95604 14.5387 9.72528 15.4667 9.72528C15.7653 9.72528 16 9.96703 16 10.2747V12.989C16 14.0989 15.1253 15 14.048 15ZM1.06667 10.7802V12.989C1.06667 13.4945 1.46133 13.9011 1.952 13.9011H14.0373C14.528 13.9011 14.9227 13.4945 14.9227 12.989V10.7692C13.664 10.5165 12.7147 9.37363 12.7147 8C12.7147 6.62637 13.6747 5.48352 14.9333 5.23077V3.01099C14.9333 2.50549 14.528 2.0989 14.048 2.0989H1.952C1.46133 2.0989 1.06667 2.50549 1.06667 3.01099V5.23077C2.35733 5.48352 3.31733 6.62637 3.31733 8C3.31733 9.38462 2.34667 10.5385 1.06667 10.7802Z" fill="#999999"/>
<path d="M5.77067 5.70316C5.472 5.70316 5.23734 5.4614 5.23734 5.15371V3.12074C5.23734 2.81305 5.472 2.57129 5.77067 2.57129C6.06934 2.57129 6.304 2.81305 6.304 3.12074V5.15371C6.304 5.4614 6.06934 5.70316 5.77067 5.70316Z" fill="#D6D6D6"/>
<path d="M5.77067 9.56058C5.472 9.56058 5.23734 9.31882 5.23734 9.01113V6.97816C5.23734 6.67047 5.472 6.42871 5.77067 6.42871C6.06934 6.42871 6.304 6.67047 6.304 6.97816V9.01113C6.304 9.31882 6.06934 9.56058 5.77067 9.56058Z" fill="#D6D6D6"/>
<path d="M5.77067 13.4285C5.472 13.4285 5.23734 13.1867 5.23734 12.8791V10.8351C5.23734 10.5274 5.472 10.2856 5.77067 10.2856C6.06934 10.2856 6.304 10.5274 6.304 10.8351V12.8681C6.304 13.1758 6.06934 13.4285 5.77067 13.4285Z" fill="#D6D6D6"/>
</svg>
