<svg width="16" height="16" viewBox="0 0 16 16" fill="none" xmlns="http://www.w3.org/2000/svg">
<path d="M11.4217 16H7.28689C6.29213 16 5.48914 15.2321 5.48914 14.2808V11.7249H6.68764V14.2808C6.68764 14.6017 6.95131 14.8539 7.28689 14.8539H10.2352V12.8711C10.2352 11.1404 9.75581 10.3037 7.53858 8.18338C6.59176 7.30086 5.80075 6.31519 5.21348 5.35244C4.79401 4.65329 4.56629 3.81662 4.56629 2.95702V0H9.62397C10.6187 0 11.4217 0.767908 11.4217 1.7192V3.93123H10.2232V1.7192C10.2232 1.39828 9.95955 1.14613 9.62397 1.14613H5.76479V2.95702C5.76479 3.62178 5.93258 4.25215 6.25618 4.79083C6.62771 5.39828 7.28689 6.33811 8.37753 7.38109C10.6667 9.5702 11.4337 10.6705 11.4337 12.8825V16H11.4217Z" fill="#999999"/>
<path d="M11.7213 4.65332V5.79945H14.8015V10.0287H11.2779C11.2779 10.0287 11.6015 11.3467 13.3513 11.3467C15.4367 11.3467 16 10.6132 16 9.91407V4.65332H11.7213Z" fill="#D6D6D6"/>
<path d="M4.27865 11.3467V10.2006H1.1985V5.97137H4.7221C4.7221 5.97137 4.3985 4.65332 2.64869 4.65332C0.563296 4.65332 0 5.39831 0 6.09745V11.3467H4.27865Z" fill="#999999"/>
</svg>
