<svg width="40" height="40" viewBox="0 0 40 40" fill="none" xmlns="http://www.w3.org/2000/svg">
<circle cx="20" cy="20" r="20" fill="white"/>
<path d="M10.9196 21.5045C10.0357 21.5938 8.37054 21.9821 7.46429 22.7812C4.74107 25.1473 6.37054 29.4777 11.8839 29.4777C15.0893 29.4777 18.2902 27.4375 20.8036 24.1652C17.2232 22.4286 14.192 21.183 10.9196 21.5045ZM31.4777 24.4955C35.9464 25.9866 38.3839 26.4152 38.9196 26.4955C39.6379 24.4053 40.003 22.2101 40 20C40 8.95536 31.0446 0 20 0C8.95536 0 0 8.95536 0 20C0 31.0446 8.95536 40 20 40C26.9598 40 33.0893 36.442 36.6741 31.0491C33.2991 29.7188 27.1384 27.2545 23.8705 25.6875C20.75 29.5134 16.7232 31.8393 12.5446 31.8393C5.47321 31.8393 3.07589 25.6741 6.41964 21.6161C7.14732 20.7321 8.39286 19.8884 10.317 19.4107C13.3304 18.6741 18.1295 19.8705 22.625 21.3482C23.433 19.8616 24.1161 18.2277 24.6205 16.4866H10.7634V15.0893H17.9062V12.5804H9.25446V11.183H17.9062V7.60714C17.9062 7.60714 17.9062 7.00446 18.5179 7.00446H22.0089V11.183H30.567V12.5804H22.0134V15.0893H28.9955C28.3259 17.817 27.3125 20.3304 26.0402 22.5357C28.1607 23.2991 30.0625 24.0223 31.4777 24.4955Z" fill="#00AAEF"/>
</svg>
