<svg width="16" height="16" viewBox="0 0 16 16" fill="none" xmlns="http://www.w3.org/2000/svg">
<path d="M3.32886 11.7504V10.3925L4.44984 9.27072L3.32886 8.1489V6.79102L5.13141 8.58868L5.13218 8.58793L5.81531 9.27072L5.13218 9.95358L5.13141 9.95279L3.32886 11.7504Z" fill="#D6D6D6"/>
<path d="M0 8.70898H4.85914V9.832H0V8.70898Z" fill="#D6D6D6"/>
<path d="M14.9336 7.35645H11.2354C10.6465 7.35645 10.1691 7.834 10.1691 8.42311V10.2425C10.1691 10.8316 10.6465 11.3091 11.2354 11.3091H14.9336C15.5225 11.3091 16 10.8316 16 10.2425V8.42311C16 7.834 15.5225 7.35645 14.9336 7.35645ZM15.4122 9.82732C15.4122 10.2977 15.031 10.6789 14.5608 10.6789H11.6082C11.138 10.6789 10.7569 10.2977 10.7569 9.82732V8.75301C10.7569 8.28268 11.138 7.9014 11.6082 7.9014H14.5608C15.031 7.9014 15.4122 8.28268 15.4122 8.75301V9.82732Z" fill="#999999"/>
<path d="M11.4149 9.2705C11.4149 9.4202 11.4744 9.56377 11.5802 9.66962C11.686 9.77548 11.8295 9.83495 11.9792 9.83495C12.1288 9.83495 12.2724 9.77548 12.3782 9.66962C12.484 9.56377 12.5435 9.4202 12.5435 9.2705C12.5435 9.1208 12.484 8.97723 12.3782 8.87138C12.2724 8.76552 12.1288 8.70605 11.9792 8.70605C11.8295 8.70605 11.686 8.76552 11.5802 8.87138C11.4744 8.97723 11.4149 9.1208 11.4149 9.2705Z" fill="#D6D6D6"/>
<path d="M10.1689 0L1.63013 2.7452V3.43899H2.28012L9.61383 1.08121L10.3714 3.43899H11.2739L10.1689 0Z" fill="#999999"/>
<path d="M3.14112 13.9363C2.64968 13.9363 2.25126 13.5377 2.25126 13.0461V12.3076H1.83093V13.29C1.83093 13.8791 2.30838 14.3567 2.89726 14.3567H4.94072V13.9363H3.14112Z" fill="#D6D6D6"/>
<path d="M14.047 13.4338C14.047 14.4517 13.393 15.1918 12.3755 15.1918L2.65536 15.2112C1.63783 15.2112 0.898502 14.4533 0.898502 13.4354L0.89583 11.3773L0.890374 11.3718L0.890092 10.6777H0V12.5414V13.8666C0 15.0448 0.95489 15.9999 2.13277 15.9999H12.7963C13.9742 15.9999 14.929 15.0448 14.929 13.8666V11.3096L14.0544 11.3096L14.047 13.4338Z" fill="#999999"/>
<path d="M12.7963 2.66699H2.13277C0.95489 2.66699 0 3.62213 0 4.80033V7.98918H0.888982L0.887834 5.13222C0.887834 4.11436 1.58537 3.4349 2.60299 3.4349H12.4161C13.4336 3.4349 14.0382 4.16081 14.0382 5.17868L14.0544 7.3573H14.929V4.80035C14.929 3.62215 13.9742 2.66699 12.7963 2.66699Z" fill="#999999"/>
</svg>
