<svg width="16" height="16" viewBox="0 0 16 16" fill="none" xmlns="http://www.w3.org/2000/svg">
<path d="M4.66667 9.16683C4.35725 9.16683 4.0605 9.04391 3.84171 8.82512C3.62292 8.60633 3.5 8.30958 3.5 8.00016C3.5 7.69074 3.62292 7.394 3.84171 7.1752C4.0605 6.95641 4.35725 6.8335 4.66667 6.8335C4.97609 6.8335 5.27283 6.95641 5.49162 7.1752C5.71042 7.394 5.83333 7.69074 5.83333 8.00016C5.83333 8.30958 5.71042 8.60633 5.49162 8.82512C5.27283 9.04391 4.97609 9.16683 4.66667 9.16683ZM8 9.16683C7.69058 9.16683 7.39383 9.04391 7.17504 8.82512C6.95625 8.60633 6.83333 8.30958 6.83333 8.00016C6.83333 7.69074 6.95625 7.394 7.17504 7.1752C7.39383 6.95641 7.69058 6.8335 8 6.8335C8.30942 6.8335 8.60617 6.95641 8.82496 7.1752C9.04375 7.394 9.16667 7.69074 9.16667 8.00016C9.16667 8.30958 9.04375 8.60633 8.82496 8.82512C8.60617 9.04391 8.30942 9.16683 8 9.16683ZM11.3333 9.16683C11.0239 9.16683 10.7272 9.04391 10.5084 8.82512C10.2896 8.60633 10.1667 8.30958 10.1667 8.00016C10.1667 7.69074 10.2896 7.394 10.5084 7.1752C10.7272 6.95641 11.0239 6.8335 11.3333 6.8335C11.6428 6.8335 11.9395 6.95641 12.1583 7.1752C12.3771 7.394 12.5 7.69074 12.5 8.00016C12.5 8.30958 12.3771 8.60633 12.1583 8.82512C11.9395 9.04391 11.6428 9.16683 11.3333 9.16683Z" fill="black"/>
</svg>
