<svg width="16" height="16" viewBox="0 0 16 16" fill="none" xmlns="http://www.w3.org/2000/svg">
<path d="M11.5402 4.97977C11.8771 4.97977 12.1502 4.70666 12.1502 4.36977C12.1502 4.03287 11.8771 3.75977 11.5402 3.75977C11.2033 3.75977 10.9302 4.03287 10.9302 4.36977C10.9302 4.70666 11.2033 4.97977 11.5402 4.97977Z" fill="#444444"/>
<path d="M4.38002 4.97977C4.71691 4.97977 4.99002 4.70666 4.99002 4.36977C4.99002 4.03287 4.71691 3.75977 4.38002 3.75977C4.04313 3.75977 3.77002 4.03287 3.77002 4.36977C3.77002 4.70666 4.04313 4.97977 4.38002 4.97977Z" fill="#444444"/>
<path d="M4.38002 12.22C4.71691 12.22 4.99002 11.9469 4.99002 11.61C4.99002 11.2731 4.71691 11 4.38002 11C4.04313 11 3.77002 11.2731 3.77002 11.61C3.77002 11.9469 4.04313 12.22 4.38002 12.22Z" fill="#444444"/>
<path d="M12.4301 14.6702C12.767 14.6702 13.0401 14.3971 13.0401 14.0602C13.0401 13.7233 12.767 13.4502 12.4301 13.4502C12.0932 13.4502 11.8201 13.7233 11.8201 14.0602C11.8201 14.3971 12.0932 14.6702 12.4301 14.6702Z" fill="#444444"/>
<path d="M14.0499 14.6702C14.3868 14.6702 14.6599 14.3971 14.6599 14.0602C14.6599 13.7233 14.3868 13.4502 14.0499 13.4502C13.713 13.4502 13.4399 13.7233 13.4399 14.0602C13.4399 14.3971 13.713 14.6702 14.0499 14.6702Z" fill="#444444"/>
<path d="M9.18018 14.1702V10.0402C9.18018 9.5402 9.58018 9.1402 10.0802 9.1402H11.4102C11.9102 9.1402 12.3102 9.5402 12.3102 10.0402V11.2602C12.3102 11.7602 12.7102 12.1602 13.2102 12.1602C13.7102 12.1602 14.1102 11.7602 14.1102 11.2602V8.9502" stroke="#444444" stroke-linecap="round" stroke-linejoin="round"/>
<path d="M13.11 6.93981H9.96997C9.41997 6.93981 8.96997 6.48981 8.96997 5.93981V2.7998C8.96997 2.2498 9.41997 1.7998 9.96997 1.7998H13.11C13.66 1.7998 14.11 2.2498 14.11 2.7998V5.93981C14.11 6.49981 13.66 6.93981 13.11 6.93981Z" stroke="#444444" stroke-linecap="round" stroke-linejoin="round"/>
<path d="M5.95006 6.93981H2.81006C2.26006 6.93981 1.81006 6.48981 1.81006 5.93981V2.7998C1.81006 2.2498 2.26006 1.7998 2.81006 1.7998H5.95006C6.50006 1.7998 6.95006 2.2498 6.95006 2.7998V5.93981C6.95006 6.49981 6.50006 6.93981 5.95006 6.93981Z" stroke="#444444" stroke-linecap="round" stroke-linejoin="round"/>
<path d="M5.95006 14.1703H2.81006C2.26006 14.1703 1.81006 13.7203 1.81006 13.1703V10.0303C1.81006 9.48027 2.26006 9.03027 2.81006 9.03027H5.95006C6.50006 9.03027 6.95006 9.48027 6.95006 10.0303V13.1703C6.95006 13.7303 6.50006 14.1703 5.95006 14.1703Z" stroke="#444444" stroke-linecap="round" stroke-linejoin="round"/>
</svg>
