<svg width="12" height="12" viewBox="0 0 12 12" fill="none" xmlns="http://www.w3.org/2000/svg">
<path d="M6.00232 0.853647C6.04722 0.715451 6.24273 0.715451 6.28763 0.853648L7.45838 4.45684C7.47846 4.51864 7.53606 4.56049 7.60104 4.56049H11.3897C11.535 4.56049 11.5954 4.74643 11.4778 4.83184L8.41277 7.05874C8.3602 7.09693 8.3382 7.16464 8.35828 7.22644L9.52903 10.8296C9.57393 10.9678 9.41576 11.0827 9.2982 10.9973L6.23314 8.77044C6.18057 8.73225 6.10938 8.73225 6.05681 8.77044L2.99175 10.9973C2.87419 11.0827 2.71602 10.9678 2.76092 10.8296L3.93167 7.22644C3.95175 7.16464 3.92975 7.09693 3.87718 7.05874L0.81212 4.83184C0.694563 4.74643 0.754979 4.56049 0.900288 4.56049H4.68891C4.75389 4.56049 4.81149 4.51864 4.83157 4.45684L6.00232 0.853647Z" fill="#FCC63C"/>
</svg>
