<svg width="16" height="16" viewBox="0 0 16 16" fill="none" xmlns="http://www.w3.org/2000/svg">
<g clip-path="url(#clip0)">
<path d="M3.89659 4.11914C3.53653 4.11914 3.24048 4.41519 3.24048 4.77525C3.24048 5.13531 3.53653 5.43136 3.89659 5.43136C4.25665 5.43136 4.5607 5.14331 4.5607 4.77525C4.5607 4.40719 4.26465 4.11914 3.89659 4.11914Z" fill="#D6D6D6"/>
<path d="M7.10522 4.77525C7.10522 4.94926 7.17435 5.11615 7.2974 5.23919C7.42044 5.36224 7.58732 5.43136 7.76134 5.43136C7.93535 5.43136 8.10223 5.36224 8.22528 5.23919C8.34832 5.11615 8.41745 4.94926 8.41745 4.77525C8.41745 4.60124 8.34832 4.43436 8.22528 4.31131C8.10223 4.18827 7.93535 4.11914 7.76134 4.11914C7.58732 4.11914 7.42044 4.18827 7.2974 4.31131C7.17435 4.43436 7.10522 4.60124 7.10522 4.77525Z" fill="#D6D6D6"/>
<path d="M9.6098 8.08008C9.32975 8.08008 9.10571 8.30412 9.10571 8.58416C9.10571 8.86421 9.32975 9.08825 9.6098 9.08825C9.88985 9.08825 10.1139 8.86421 10.1139 8.58416C10.1139 8.30412 9.88985 8.08008 9.6098 8.08008ZM12.6263 8.08008C12.3463 8.08008 12.1222 8.30412 12.1222 8.58416C12.1222 8.86421 12.3463 9.08825 12.6263 9.08825C12.9064 9.08825 13.1304 8.86421 13.1304 8.58416C13.1304 8.30412 12.9064 8.08008 12.6263 8.08008Z" fill="#D6D6D6"/>
<path d="M16.0027 9.80824C16.0027 7.59187 14.0504 5.75956 11.554 5.52752C11.0739 3.13511 8.68148 1.38281 5.82499 1.38281C2.60844 1.38281 0 3.63119 0 6.39966C0 7.86391 0.720122 9.22414 1.99234 10.1763L1.63228 11.4485C1.58427 11.6166 1.64028 11.8006 1.7763 11.9126C1.85632 11.9766 1.96033 12.0166 2.06435 12.0166C2.13636 12.0166 2.20037 12.0006 2.26438 11.9686L3.91266 11.1365C4.52877 11.3205 5.16888 11.4165 5.82499 11.4165C6.00902 11.4165 6.19305 11.4085 6.37708 11.3925C7.11321 12.9848 8.91352 14.113 11.0179 14.113C11.57 14.113 12.1141 14.033 12.6261 13.8809L13.9944 14.5691C14.0584 14.6011 14.1304 14.6171 14.1944 14.6171C14.2984 14.6171 14.3944 14.5851 14.4825 14.513C14.6185 14.401 14.6745 14.217 14.6265 14.049L14.3304 13.0248C15.3946 12.2087 16.0027 11.0485 16.0027 9.80824ZM5.82499 10.5204C5.20088 10.5204 4.59278 10.4243 4.00868 10.2323C3.88866 10.1923 3.76064 10.2083 3.64862 10.2643L2.76847 10.7044L2.9365 10.1123C2.99251 9.92826 2.9205 9.72823 2.75247 9.61621C1.56827 8.82408 0.888151 7.64788 0.888151 6.39166C0.888151 4.11928 3.09653 2.27096 5.81699 2.27096C8.16939 2.27096 10.1457 3.63119 10.6338 5.50351C8.05737 5.67154 6.02502 7.53586 6.02502 9.80024C6.02502 10.0403 6.04903 10.2803 6.09704 10.5044C6.00102 10.5204 5.913 10.5204 5.82499 10.5204ZM13.5703 12.4727C13.4103 12.5847 13.3383 12.7848 13.3863 12.9688L13.4823 13.3128L12.8902 13.0168C12.7782 12.9528 12.6421 12.9368 12.5221 12.9768C12.042 13.1368 11.53 13.2168 11.0099 13.2168C8.75349 13.2168 6.91318 11.6886 6.91318 9.80024C6.91318 7.91192 8.75349 6.38366 11.0099 6.38366C13.2663 6.38366 15.1066 7.91192 15.1066 9.80024C15.1066 10.8484 14.5465 11.8166 13.5703 12.4727Z" fill="#999999"/>
</g>
<defs>
<clipPath id="clip0">
<rect width="16" height="16" fill="white"/>
</clipPath>
</defs>
</svg>
