<svg width="18" height="18" viewBox="0 0 18 18" fill="none"
    xmlns="http://www.w3.org/2000/svg">
    <path
        d="M9.34626 0.957836C8.89055 0.540747 8.18768 0.540747 7.73197 0.957836L0.842278 7.5154C0.502428 7.83981 0.734144 8.40365 1.19758 8.40365H2.33299C2.44112 8.40365 2.52608 8.48861 2.52608 8.59675V15.8881C2.52608 16.3052 2.86593 16.645 3.28302 16.645H6.38029C6.79738 16.645 7.13723 16.3052 7.13723 15.8881V13.3701C7.13723 12.953 7.47708 12.6132 7.89417 12.6132H9.45439C9.87148 12.6132 10.2113 12.953 10.2113 13.3701V15.8881C10.2113 16.3052 10.5512 16.645 10.9683 16.645H13.8338C14.2509 16.645 14.5908 16.3052 14.5908 15.8881V8.59675C14.5908 8.48861 14.6757 8.40365 14.7839 8.40365H16.1046C16.5758 8.40365 16.7998 7.82436 16.4522 7.50768L9.34626 0.957836Z"
        stroke="#888888" stroke-miterlimit="10" />
</svg>
