<svg width="44" height="44" viewBox="0 0 44 44" fill="none" xmlns="http://www.w3.org/2000/svg">
<circle cx="22" cy="22" r="21.75" fill="black" fill-opacity="0.5" stroke="white" stroke-width="0.5"/>
<path d="M25.5 14.5C25.8978 14.5 26.2794 14.658 26.5607 14.9393C26.842 15.2206 27 15.6022 27 16V19.5C27.0006 20.2763 26.8202 21.042 26.4731 21.7364C26.126 22.4307 25.6218 23.0346 25.0005 23.5L25 31.5C25 31.8978 24.842 32.2794 24.5607 32.5607C24.2794 32.842 23.8978 33 23.5 33H20.5C20.1022 33 19.7206 32.842 19.4393 32.5607C19.158 32.2794 19 31.8978 19 31.5V23.5C18.3786 23.0346 17.8743 22.4308 17.5271 21.7364C17.1799 21.0421 16.9995 20.2763 17 19.5V16C17 15.6022 17.158 15.2206 17.4393 14.9393C17.7206 14.658 18.1022 14.5 18.5 14.5H25.5ZM24 31H20V31.5C20 31.5657 20.0129 31.6307 20.0381 31.6913C20.0632 31.752 20.1 31.8071 20.1464 31.8536C20.1929 31.9 20.248 31.9368 20.3087 31.9619C20.3693 31.9871 20.4343 32 20.5 32H23.5C23.5657 32 23.6307 31.9871 23.6913 31.9619C23.752 31.9368 23.8071 31.9 23.8536 31.8536C23.9 31.8071 23.9368 31.752 23.9619 31.6913C23.9871 31.6307 24 31.5657 24 31.5V31ZM26 17.5H18V19.5C17.9995 20.158 18.1615 20.806 18.4717 21.3863C18.7819 21.9666 19.2306 22.4613 19.778 22.8265C19.8463 22.8722 19.9023 22.934 19.941 23.0065C19.9797 23.0789 20 23.1598 20 23.242V30H24L24.0005 23.242C24.0005 23.1598 24.0208 23.0789 24.0595 23.0065C24.0982 22.934 24.1542 22.8722 24.2225 22.8265C24.7698 22.4613 25.2184 21.9665 25.5285 21.3862C25.8386 20.8059 26.0006 20.158 26 19.5V17.5ZM22 24.5C22.1326 24.5 22.2598 24.5527 22.3536 24.6464C22.4473 24.7402 22.5 24.8674 22.5 25V26C22.5 26.1326 22.4473 26.2598 22.3536 26.3536C22.2598 26.4473 22.1326 26.5 22 26.5C21.8674 26.5 21.7402 26.4473 21.6464 26.3536C21.5527 26.2598 21.5 26.1326 21.5 26V25C21.5 24.8674 21.5527 24.7402 21.6464 24.6464C21.7402 24.5527 21.8674 24.5 22 24.5ZM25.5 15.5H18.5C18.4343 15.5 18.3693 15.5129 18.3087 15.5381C18.248 15.5632 18.1929 15.6 18.1464 15.6464C18.1 15.6929 18.0632 15.748 18.0381 15.8087C18.0129 15.8693 18 15.9343 18 16V16.5H26V16C26 15.9343 25.9871 15.8693 25.9619 15.8087C25.9368 15.748 25.9 15.6929 25.8536 15.6464C25.8071 15.6 25.752 15.5632 25.6913 15.5381C25.6307 15.5129 25.5657 15.5 25.5 15.5ZM26.125 11.6675C26.2398 11.7338 26.3236 11.843 26.358 11.9711C26.3923 12.0992 26.3743 12.2357 26.308 12.3505L25.558 13.6495C25.4912 13.7634 25.3821 13.8463 25.2545 13.88C25.1268 13.9138 24.991 13.8957 24.8767 13.8296C24.7623 13.7636 24.6787 13.6551 24.6441 13.5276C24.6095 13.4002 24.6267 13.2643 24.692 13.1495L25.442 11.8505C25.5083 11.7357 25.6175 11.6519 25.7456 11.6176C25.8737 11.5832 26.0102 11.6012 26.125 11.6675ZM17.875 11.6675C17.9898 11.6012 18.1263 11.5832 18.2544 11.6176C18.3825 11.6519 18.4917 11.7357 18.558 11.8505L19.308 13.1495C19.3414 13.2064 19.3631 13.2693 19.3721 13.3346C19.381 13.4 19.3769 13.4664 19.3601 13.5302C19.3432 13.5939 19.3139 13.6537 19.2738 13.7061C19.2338 13.7585 19.1838 13.8024 19.1267 13.8354C19.0696 13.8684 19.0065 13.8897 18.9411 13.8982C18.8757 13.9067 18.8093 13.9022 18.7457 13.8849C18.682 13.8676 18.6224 13.8379 18.5703 13.7975C18.5182 13.7571 18.4746 13.7068 18.442 13.6495L17.692 12.3505C17.6257 12.2357 17.6077 12.0992 17.6421 11.9711C17.6764 11.843 17.7602 11.7338 17.875 11.6675ZM22 11C22.1326 11 22.2598 11.0527 22.3536 11.1464C22.4473 11.2402 22.5 11.3674 22.5 11.5V13C22.5 13.1326 22.4473 13.2598 22.3536 13.3536C22.2598 13.4473 22.1326 13.5 22 13.5C21.8674 13.5 21.7402 13.4473 21.6464 13.3536C21.5527 13.2598 21.5 13.1326 21.5 13V11.5C21.5 11.3674 21.5527 11.2402 21.6464 11.1464C21.7402 11.0527 21.8674 11 22 11Z" fill="white"/>
<path d="M14.6464 29.1464C14.4512 29.3417 14.4512 29.6583 14.6464 29.8536C14.8417 30.0488 15.1583 30.0488 15.3536 29.8536L14.6464 29.1464ZM30.3536 14.8536C30.5488 14.6583 30.5488 14.3417 30.3536 14.1464C30.1583 13.9512 29.8417 13.9512 29.6464 14.1464L30.3536 14.8536ZM15.3536 29.8536L30.3536 14.8536L29.6464 14.1464L14.6464 29.1464L15.3536 29.8536Z" fill="white"/>
</svg>
