<svg width="16" height="16" viewBox="0 0 16 16" fill="none" xmlns="http://www.w3.org/2000/svg">
<path d="M8.04871 10.6997C6.47281 10.6997 5.19104 9.41719 5.19104 7.84205C5.19104 6.2669 6.47281 4.98438 8.04871 4.98438C9.62462 4.98438 10.9064 6.2669 10.9064 7.84205C10.9064 9.41719 9.62463 10.6997 8.04871 10.6997ZM8.04871 6.12744C7.10302 6.12744 6.33411 6.89711 6.33411 7.84205C6.33411 8.78698 7.10302 9.55665 8.04871 9.55665C8.99441 9.55665 9.76332 8.78698 9.76332 7.84205C9.76332 6.89711 8.99443 6.12744 8.04871 6.12744Z" fill="#111111"/>
<path d="M8.04884 13.2109C7.51342 13.2082 6.98098 13.131 6.46685 12.9815C6.32225 12.9401 6.17914 12.8936 6.03781 12.8421C5.07383 12.4938 4.09687 11.8979 3.13364 11.0696C1.55774 9.71694 0.563269 8.21645 0.522116 8.15319C0.460632 8.06003 0.427856 7.95086 0.427856 7.83923C0.427856 7.7276 0.460632 7.61843 0.522116 7.52526C0.536597 7.50318 0.887139 6.97204 1.49524 6.26027C1.59377 6.14496 1.73407 6.07352 1.88527 6.06166C2.03647 6.0498 2.18619 6.09848 2.30149 6.19701C2.4168 6.29554 2.48824 6.43583 2.5001 6.58704C2.51196 6.73824 2.46328 6.88796 2.36475 7.00326C2.07745 7.33934 1.85189 7.63195 1.70024 7.83924C2.06145 8.32922 2.84026 9.3115 3.87893 10.2031C4.73623 10.9408 5.59354 11.4666 6.42722 11.7683C6.54533 11.8103 6.66345 11.8491 6.78233 11.8827C7.19391 12.0025 7.62017 12.0646 8.04884 12.0671C11.0315 12.0671 13.6369 8.86647 14.3975 7.8377C14.1399 7.48966 13.8676 7.15278 13.5813 6.82799C12.8261 5.97069 12.042 5.2658 11.251 4.73236C8.98923 3.20675 6.95455 3.2441 4.69051 4.84057C4.62917 4.88385 4.5599 4.91463 4.48666 4.93114C4.41342 4.94765 4.33765 4.94957 4.26367 4.9368C4.18969 4.92403 4.11895 4.89681 4.05548 4.8567C3.99202 4.81659 3.93708 4.76437 3.8938 4.70303C3.85052 4.64168 3.81974 4.57242 3.80323 4.49918C3.78672 4.42594 3.78479 4.35017 3.79757 4.27619C3.81034 4.20221 3.83756 4.13146 3.87767 4.068C3.91778 4.00454 3.97 3.9496 4.03134 3.90632C6.68174 2.0393 9.23612 1.9951 11.8896 3.78515C12.7613 4.37268 13.6194 5.14311 14.4386 6.07281C14.8478 6.53232 15.2273 7.01746 15.5748 7.52526C15.6363 7.61843 15.6691 7.72761 15.6691 7.83924C15.6691 7.95087 15.6363 8.06004 15.5748 8.15321C15.4399 8.35895 12.202 13.2109 8.04884 13.2109V13.2109Z" fill="#111111"/>
</svg>
