<svg width="16" height="16" viewBox="0 0 16 16" fill="none" xmlns="http://www.w3.org/2000/svg">
<circle cx="8" cy="8" r="8" fill="#444444"/>
<path d="M7.35577 8.17021L3.95842 4.77286C3.78693 4.60137 3.78693 4.31865 3.95842 4.14716L3.97696 4.12862C4.14845 3.95713 4.43118 3.95713 4.60267 4.12862L8.00002 7.5306L11.3974 4.12862C11.5689 3.95713 11.8516 3.95713 12.0231 4.12862L12.0416 4.14716C12.2177 4.31865 12.2177 4.60137 12.0416 4.77286L8.64426 8.17021L12.0416 11.5676C12.2131 11.7391 12.2131 12.0218 12.0416 12.1933L12.0231 12.2118C11.8516 12.3833 11.5689 12.3833 11.3974 12.2118L8.00002 8.81446L4.60267 12.2118C4.43118 12.3833 4.14845 12.3833 3.97696 12.2118L3.95842 12.1933C3.78693 12.0218 3.78693 11.7391 3.95842 11.5676L7.35577 8.17021Z" fill="white"/>
</svg>
