<svg width="16" height="16" viewBox="0 0 16 16" fill="none" xmlns="http://www.w3.org/2000/svg">
<path d="M6.1665 1.6665H13.1665C13.4759 1.6665 13.7727 1.78942 13.9915 2.00821C14.2103 2.22701 14.3332 2.52375 14.3332 2.83317V9.83317C14.3332 10.1426 14.2103 10.4393 13.9915 10.6581C13.7727 10.8769 13.4759 10.9998 13.1665 10.9998H6.1665C5.85709 10.9998 5.56034 10.8769 5.34155 10.6581C5.12275 10.4393 4.99984 10.1426 4.99984 9.83317V2.83317C4.99984 2.52375 5.12275 2.22701 5.34155 2.00821C5.56034 1.78942 5.85709 1.6665 6.1665 1.6665ZM6.1665 2.6665C6.1223 2.6665 6.07991 2.68406 6.04865 2.71532C6.0174 2.74658 5.99984 2.78897 5.99984 2.83317V9.83317C5.99984 9.85506 6.00415 9.87673 6.01252 9.89695C6.0209 9.91717 6.03318 9.93554 6.04865 9.95102C6.06413 9.9665 6.0825 9.97877 6.10272 9.98715C6.12294 9.99553 6.14462 9.99984 6.1665 9.99984H13.1665C13.2107 9.99984 13.2531 9.98228 13.2844 9.95102C13.3156 9.91977 13.3332 9.87737 13.3332 9.83317V2.83317C13.3332 2.78897 13.3156 2.74658 13.2844 2.71532C13.2531 2.68406 13.2107 2.6665 13.1665 2.6665H6.1665ZM9.99984 11.9998C9.99984 11.8672 10.0525 11.7401 10.1463 11.6463C10.2401 11.5525 10.3672 11.4998 10.4998 11.4998C10.6324 11.4998 10.7596 11.5525 10.8534 11.6463C10.9472 11.7401 10.9998 11.8672 10.9998 11.9998V13.1665C10.9998 13.4759 10.8769 13.7727 10.6581 13.9915C10.4393 14.2103 10.1426 14.3332 9.83317 14.3332H2.83317C2.52375 14.3332 2.22701 14.2103 2.00821 13.9915C1.78942 13.7727 1.6665 13.4759 1.6665 13.1665V6.1665C1.6665 5.85708 1.78942 5.56034 2.00821 5.34155C2.22701 5.12275 2.52375 4.99984 2.83317 4.99984H3.99984C4.13245 4.99984 4.25962 5.05252 4.35339 5.14628C4.44716 5.24005 4.49984 5.36723 4.49984 5.49984C4.49984 5.63245 4.44716 5.75962 4.35339 5.85339C4.25962 5.94716 4.13245 5.99984 3.99984 5.99984H2.83317C2.78897 5.99984 2.74658 6.0174 2.71532 6.04865C2.68406 6.07991 2.6665 6.1223 2.6665 6.1665V13.1665C2.6665 13.2107 2.68406 13.2531 2.71532 13.2844C2.74658 13.3156 2.78897 13.3332 2.83317 13.3332H9.83317C9.87737 13.3332 9.91977 13.3156 9.95102 13.2844C9.98228 13.2531 9.99984 13.2107 9.99984 13.1665V11.9998Z" fill="black"/>
</svg>
