<svg width="16" height="15" viewBox="0 0 16 15" fill="none" xmlns="http://www.w3.org/2000/svg">
<path fill-rule="evenodd" clip-rule="evenodd" d="M7.52279 0.00945266C7.50558 0.0171693 7.45359 0.023979 7.40726 0.0245996C7.36093 0.0252042 7.29757 0.0323639 7.26645 0.0405102C7.23533 0.0486405 7.16763 0.0636601 7.116 0.0738747C6.94033 0.108639 6.67634 0.180253 6.56058 0.224564C6.52185 0.239393 6.44261 0.268716 6.38447 0.289734C6.25042 0.338182 5.79506 0.569713 5.62576 0.675503C5.29194 0.884091 4.83149 1.28701 4.59516 1.57735C4.44255 1.76482 4.25416 2.02962 4.17233 2.17166C4.12382 2.25589 4.05695 2.37176 4.02375 2.42917C3.99054 2.48658 3.96338 2.54225 3.96338 2.55288C3.96338 2.5635 3.93882 2.6218 3.90881 2.68242C3.85027 2.80062 3.83387 2.84224 3.74887 3.08851C3.68653 3.26911 3.60869 3.56724 3.58687 3.70902C3.5788 3.76152 3.56387 3.85818 3.55372 3.92381C3.5292 4.0822 3.529 5.00454 3.55343 5.16484C3.56345 5.23047 3.57815 5.31639 3.58613 5.35577C3.59411 5.39515 3.60816 5.46674 3.61738 5.51487C3.62658 5.563 3.64091 5.62744 3.64922 5.65807C3.72626 5.94206 3.73469 5.96842 3.80693 6.1513C3.82594 6.19943 3.85134 6.26581 3.86336 6.29882C3.90052 6.40076 4.05516 6.70785 4.15642 6.88077C4.24829 7.03769 4.52882 7.43304 4.58618 7.48644C4.60107 7.50031 4.6448 7.55094 4.68337 7.59894C4.77224 7.70957 4.85615 7.7949 4.96493 7.88527C5.01213 7.92449 5.06132 7.96781 5.07423 7.98153C5.1189 8.02904 5.33004 8.19587 5.45597 8.28316C5.52552 8.33139 5.5846 8.38246 5.58726 8.39667C5.5932 8.42849 5.57854 8.43463 5.36368 8.49038C5.07315 8.56576 4.54357 8.74121 4.29977 8.84286C3.74686 9.07338 3.21693 9.35904 2.84471 9.62716C2.67344 9.75055 2.43487 9.9347 2.39541 9.97396C2.37572 9.99357 2.32102 10.0418 2.27388 10.0812C2.16436 10.1727 2.0194 10.3201 1.92944 10.4315C1.89071 10.4794 1.84324 10.5351 1.82397 10.5551C1.76034 10.6212 1.55278 10.9082 1.47266 11.0408C1.24215 11.4223 1.05073 11.921 0.988972 12.3007C0.973576 12.3954 0.943427 12.7427 0.941315 12.8497C0.936011 13.1183 1.06914 13.4012 1.31029 13.6338C1.50088 13.8176 1.89547 14.0672 2.14156 14.1596C2.17548 14.1724 2.24196 14.1988 2.28929 14.2182C2.41441 14.2697 2.76453 14.3911 2.89165 14.4271C3.0995 14.4858 3.48644 14.5853 3.57224 14.602C3.61957 14.6112 3.68645 14.6245 3.72087 14.6317C3.89518 14.6678 3.97822 14.684 4.04944 14.6957C4.13894 14.7105 4.30704 14.7388 4.43276 14.7602C4.58461 14.7861 4.71095 14.8035 5.12117 14.8553C5.49771 14.9029 6.00983 14.9464 6.62316 14.9832C6.99838 15.0056 9.00159 15.0056 9.37681 14.9832C9.99014 14.9464 10.5023 14.9029 10.8788 14.8553C11.289 14.8035 11.4154 14.7861 11.5672 14.7602C11.6929 14.7388 11.861 14.7105 11.9505 14.6957C12.0218 14.684 12.1048 14.6678 12.2791 14.6317C12.3135 14.6245 12.3804 14.6112 12.4277 14.602C12.5135 14.5853 12.9005 14.4858 13.1083 14.4271C13.2354 14.3911 13.5856 14.2697 13.7107 14.2182C13.758 14.1988 13.8245 14.1724 13.8584 14.1596C14.1045 14.0672 14.4991 13.8176 14.6897 13.6338C14.9308 13.4012 15.064 13.1183 15.0587 12.8497C15.0565 12.7427 15.0264 12.3954 15.011 12.3007C14.9492 11.921 14.7578 11.4223 14.5273 11.0408C14.4472 10.9082 14.2396 10.6212 14.176 10.5551C14.1567 10.5351 14.1093 10.4794 14.0705 10.4315C13.9806 10.3201 13.8356 10.1727 13.7261 10.0812C13.679 10.0418 13.6243 9.99357 13.6046 9.97396C13.5651 9.9347 13.3265 9.75055 13.1553 9.62716C12.783 9.35904 12.2531 9.07338 11.7002 8.84286C11.4564 8.74121 10.9268 8.56576 10.6363 8.49038C10.4214 8.43463 10.4068 8.42849 10.4127 8.39667C10.4154 8.38246 10.4745 8.33139 10.544 8.28316C10.6699 8.19587 10.8811 8.02904 10.9257 7.98153C10.9386 7.96781 10.9878 7.92449 11.035 7.88527C11.1438 7.7949 11.2277 7.70957 11.3166 7.59894C11.3552 7.55094 11.3989 7.50031 11.4138 7.48644C11.4711 7.43304 11.7517 7.03769 11.8435 6.88077C11.9448 6.70785 12.0995 6.40076 12.1366 6.29882C12.1486 6.26581 12.174 6.19943 12.193 6.1513C12.2653 5.96842 12.2737 5.94206 12.3508 5.65807C12.3591 5.62744 12.3734 5.563 12.3826 5.51487C12.3918 5.46674 12.4059 5.39515 12.4138 5.35577C12.4218 5.31639 12.4365 5.23047 12.4465 5.16484C12.471 5.00454 12.4708 4.0822 12.4463 3.92381C12.4361 3.85818 12.4212 3.76152 12.4131 3.70902C12.3913 3.56724 12.3134 3.26911 12.2511 3.08851C12.1661 2.84224 12.1497 2.80062 12.0912 2.68242C12.0612 2.6218 12.0366 2.5635 12.0366 2.55288C12.0366 2.54225 12.0094 2.48658 11.9762 2.42917C11.943 2.37176 11.8762 2.25589 11.8276 2.17166C11.7458 2.02962 11.5574 1.76482 11.4048 1.57735C11.1685 1.28701 10.708 0.884091 10.3742 0.675503C10.2049 0.569713 9.74955 0.338182 9.6155 0.289734C9.55736 0.268716 9.47812 0.239393 9.43939 0.224564C9.37745 0.200857 9.3021 0.177946 9.09519 0.119904C9.06507 0.111456 9.0017 0.0968814 8.95438 0.087526C8.90705 0.0781546 8.83664 0.0637238 8.79792 0.0554343C8.75919 0.0471608 8.67119 0.0327935 8.60235 0.0235176C8.4439 0.00216559 7.56463 -0.00929004 7.52279 0.00945266ZM8.37548 0.946079C9.03783 1.02002 9.67821 1.28424 10.204 1.70053C10.3327 1.80244 10.6964 2.17226 10.7964 2.30298C10.936 2.48543 11.1486 2.82414 11.2001 2.94607C11.2488 3.06149 11.3131 3.21495 11.3464 3.29534C11.3646 3.3391 11.3895 3.41428 11.4019 3.4624C11.4143 3.51053 11.4323 3.57497 11.4418 3.6056C11.4514 3.63623 11.4666 3.70067 11.4755 3.7488C11.4845 3.79693 11.4986 3.86852 11.5068 3.9079C11.5695 4.20982 11.5723 4.86806 11.5122 5.15689C11.4757 5.3322 11.4143 5.56539 11.3629 5.72416C11.2985 5.92314 11.1027 6.33718 10.9991 6.49328C10.6968 6.94887 10.2855 7.36025 9.87747 7.61515C9.73555 7.70381 9.4472 7.85502 9.34977 7.89189C9.31731 7.90417 9.25204 7.92912 9.20471 7.94732C9.10005 7.98757 8.71592 8.08886 8.5867 8.11028C8.46205 8.13095 8.12715 8.15842 7.99999 8.15842C7.87282 8.15842 7.53792 8.13095 7.41327 8.11028C7.28405 8.08886 6.89992 7.98757 6.79526 7.94732C6.74793 7.92912 6.68266 7.90417 6.6502 7.89189C6.55277 7.85502 6.26442 7.70381 6.1225 7.61515C5.71442 7.36025 5.30313 6.94887 5.00084 6.49328C4.89726 6.33718 4.70142 5.92314 4.63703 5.72416C4.58565 5.56539 4.5243 5.3322 4.4878 5.15689C4.42764 4.86806 4.4305 4.20982 4.49321 3.9079C4.50139 3.86852 4.51544 3.79693 4.52442 3.7488C4.53341 3.70067 4.54857 3.63623 4.55813 3.6056C4.56767 3.57497 4.58563 3.51053 4.59804 3.4624C4.61044 3.41428 4.63542 3.3391 4.65355 3.29534C4.68684 3.21495 4.75113 3.06149 4.79987 2.94607C4.85134 2.82414 5.06397 2.48543 5.20357 2.30298C5.30358 2.17226 5.66724 1.80244 5.79595 1.70053C6.1812 1.39552 6.64783 1.1637 7.13836 1.03362C7.31501 0.986778 7.42411 0.968099 7.62023 0.951122C7.69963 0.944249 7.76993 0.933207 7.77645 0.926572C7.7906 0.912189 8.18772 0.925108 8.37548 0.946079ZM8.74316 9.12544C9.06313 9.14952 9.27593 9.17473 9.54891 9.22087C9.59624 9.22887 9.68073 9.24313 9.73666 9.25253C9.92282 9.28386 9.95491 9.29076 10.3468 9.38392C10.5428 9.43048 10.9717 9.56516 11.2465 9.6664C11.4901 9.75616 12.0496 10.0313 12.3166 10.1926C12.5069 10.3076 12.8318 10.535 12.9127 10.6099C12.9343 10.6298 12.9904 10.6783 13.0376 10.7177C13.3684 10.9939 13.6828 11.394 13.8743 11.7824C14.0209 12.0796 14.0979 12.3615 14.1275 12.709C14.1391 12.8452 14.1173 12.9107 14.0345 12.9882C13.9663 13.052 13.6828 13.2315 13.6502 13.2315C13.6399 13.2315 13.5913 13.2517 13.542 13.2765C13.4086 13.3435 12.7929 13.5419 12.506 13.6105C12.2405 13.6739 12.1371 13.6977 12.0757 13.7096C12.0413 13.7163 11.9709 13.7304 11.9192 13.7409C11.8676 13.7514 11.7902 13.7658 11.7471 13.7729C11.6712 13.7855 11.5408 13.8074 11.3638 13.8373C11.2845 13.8507 11.2261 13.8595 10.9414 13.9009C10.6722 13.94 10.1347 13.9927 9.64279 14.0281C8.73088 14.0938 7.33826 14.0939 6.34154 14.0282C5.96167 14.0032 5.33428 13.9409 5.05859 13.9009C4.77388 13.8595 4.71546 13.8507 4.63615 13.8373C4.45921 13.8074 4.32873 13.7855 4.25283 13.7729C4.2098 13.7658 4.13236 13.7514 4.08073 13.7409C4.0291 13.7304 3.95869 13.7163 3.92427 13.7096C3.86288 13.6977 3.75944 13.6739 3.49401 13.6105C3.20705 13.5419 2.59138 13.3435 2.45793 13.2765C2.4087 13.2517 2.35941 13.2315 2.34841 13.2315C2.31367 13.2314 2.01028 13.0354 1.94474 12.9706C1.86901 12.8959 1.86083 12.8673 1.87238 12.7184C1.8993 12.3712 1.97717 12.0834 2.12563 11.7824C2.31717 11.394 2.6316 10.9939 2.96238 10.7177C3.00954 10.6783 3.06571 10.6298 3.08722 10.6099C3.16819 10.535 3.4931 10.3076 3.6834 10.1926C3.95041 10.0313 4.50987 9.75616 4.75349 9.6664C5.02826 9.56516 5.45721 9.43048 5.65312 9.38392C6.04507 9.29076 6.07715 9.28386 6.26331 9.25253C6.31924 9.24313 6.40373 9.22887 6.45106 9.22087C6.75203 9.17 6.96727 9.1459 7.25944 9.1304C7.38137 9.12393 7.48665 9.11298 7.49342 9.10609C7.50963 9.08957 8.4628 9.10434 8.74316 9.12544Z" fill="#444444"/>
</svg>
