<svg width="16" height="16" viewBox="0 0 16 16" fill="none" xmlns="http://www.w3.org/2000/svg">
<g clip-path="url(#clip0)">
<path d="M11.4278 2.05026L14.8993 8.00525L11.4278 13.9602H4.58499L1.1135 8.00525L4.58499 2.05026H11.4278ZM11.4278 1H4.58499C4.18443 1 3.80613 1.21005 3.60585 1.54614L0.134364 7.49062C-0.0547876 7.8057 -0.0547876 8.1838 0.134364 8.49887L3.60585 14.4539C3.80613 14.7899 4.17331 15 4.58499 15H11.4278C11.8284 15 12.2067 14.7899 12.407 14.4539L15.8785 8.49887C16.0676 8.1838 16.0676 7.8057 15.8785 7.49062L12.407 1.53563C12.2067 1.21005 11.8284 1 11.4278 1Z" fill="#999999"/>
<path d="M7.97775 6.4404C8.75661 6.4404 9.39082 7.03905 9.39082 7.77423C9.39082 8.50942 8.75661 9.10807 7.97775 9.10807C7.19889 9.10807 6.56468 8.50942 6.56468 7.77423C6.56468 7.03905 7.19889 6.4404 7.97775 6.4404ZM7.97775 5.39014C6.5758 5.39014 5.45202 6.4614 5.45202 7.77423C5.45202 9.09756 6.58693 10.1583 7.97775 10.1583C9.36857 10.1583 10.5035 9.08706 10.5035 7.77423C10.5035 6.4509 9.3797 5.39014 7.97775 5.39014Z" fill="#D6D6D6"/>
</g>
<defs>
<clipPath id="clip0">
<rect width="16" height="14" fill="white" transform="translate(0 1)"/>
</clipPath>
</defs>
</svg>
