<svg width="40" height="40" viewBox="0 0 40 40" fill="none" xmlns="http://www.w3.org/2000/svg">
<circle cx="20" cy="20" r="20" fill="black"/>
<path d="M24.8578 20.5022C24.8378 18.4756 26.5073 17.5037 26.5814 17.4544C25.6436 16.0798 24.1818 15.8912 23.6621 15.8695C22.4193 15.7432 21.2354 16.6034 20.6054 16.6034C19.9759 16.6034 19.0018 15.8879 17.9716 15.9064C16.6158 15.9264 15.3659 16.6966 14.6683 17.9129C13.2605 20.3607 14.3081 23.989 15.6796 25.9756C16.3508 26.9463 17.1506 28.039 18.1998 27.9989C19.2111 27.9594 19.593 27.3431 20.8157 27.3431C22.038 27.3431 22.382 27.9989 23.4517 27.9789C24.5393 27.9588 25.2288 26.9891 25.894 26.014C26.6642 24.8861 26.9811 23.7934 27 23.7381C26.9762 23.7272 24.8795 22.9223 24.8578 20.5022ZM22.8481 14.5546C23.4041 13.8776 23.7811 12.9366 23.6788 12C22.8757 12.0325 21.9033 12.535 21.3268 13.2114C20.8103 13.812 20.3588 14.7676 20.4794 15.6874C21.3755 15.7573 22.2895 15.2305 22.8481 14.5546Z" fill="white"/>
</svg>
