<svg width="12" height="12" viewBox="0 0 12 12" fill="none" xmlns="http://www.w3.org/2000/svg">
    <path
        d="M11.148 9.08355C11.0866 9.18589 10.987 9.25964 10.8712 9.28857C10.7554 9.3175 10.6329 9.29925 10.5305 9.23782C10.4282 9.1764 10.3544 9.07684 10.3255 8.96104C10.2966 8.84524 10.3148 8.72269 10.3763 8.62035C10.8514 7.829 11.1016 6.92302 11.1 6C11.1 3.1833 8.8167 0.9 6 0.9C3.1833 0.9 0.9 3.1833 0.9 6C0.9 8.8167 3.1833 11.1 6 11.1C6.92289 11.1016 7.82875 10.8515 8.62005 10.3765C8.67072 10.3461 8.72689 10.326 8.78534 10.3173C8.84379 10.3086 8.90339 10.3115 8.96072 10.3259C9.01805 10.3402 9.07199 10.3657 9.11948 10.4009C9.16696 10.436 9.20705 10.4802 9.23745 10.5309C9.26785 10.5816 9.28798 10.6377 9.29668 10.6962C9.30538 10.7546 9.30248 10.8142 9.28814 10.8716C9.27381 10.9289 9.24833 10.9828 9.21314 11.0303C9.17796 11.0778 9.13377 11.1179 9.0831 11.1483C8.15193 11.7072 7.08601 12.0016 6 12C2.68635 12 0 9.31365 0 6C0 2.68635 2.68635 0 6 0C9.31365 0 12 2.68635 12 6C12 7.101 11.7025 8.15955 11.148 9.08355ZM3.43185 7.93185L5.55 5.81355V3.3C5.55 3.18065 5.59741 3.06619 5.6818 2.9818C5.76619 2.89741 5.88065 2.85 6 2.85C6.11935 2.85 6.23381 2.89741 6.3182 2.9818C6.40259 3.06619 6.45 3.18065 6.45 3.3V6C6.44997 6.11934 6.40255 6.23378 6.31815 6.31815L4.06815 8.56815C4.02664 8.61113 3.97698 8.64541 3.92208 8.66899C3.86718 8.69258 3.80813 8.70499 3.74838 8.70551C3.68863 8.70603 3.62937 8.69465 3.57407 8.67202C3.51877 8.64939 3.46852 8.61598 3.42627 8.57373C3.38402 8.53148 3.35061 8.48123 3.32798 8.42593C3.30535 8.37063 3.29397 8.31137 3.29449 8.25162C3.29501 8.19187 3.30742 8.13282 3.331 8.07792C3.35459 8.02302 3.38887 7.97336 3.43185 7.93185Z"
        fill="#999999" />
</svg>
