<svg width="82" height="82" viewBox="0 0 82 82" fill="none" xmlns="http://www.w3.org/2000/svg">
    <path
        d="M82.0001 72.3547C82.0001 77.679 77.6722 82 72.3395 82H9.67052C4.33783 82 0.0100098 77.679 0.0100098 72.3547V9.64531C0.0100098 4.32102 4.33783 0 9.67052 0H72.3395C77.6722 0 82.0001 4.32102 82.0001 9.64531V72.3547Z"
        fill="url(#paint0_linear)" />
    <path opacity="0.3"
        d="M41.0696 41.005C11.521 41.005 0 9.64531 0 9.64531C0 4.32102 4.32785 0 9.66054 0H72.3295C77.6622 0 81.99 4.32102 81.99 9.64531C82 9.64531 70.6183 41.005 41.0696 41.005Z"
        fill="url(#paint1_linear)" />
    <path
        d="M46.7705 31.2795C45.4771 31.2199 44.532 31.2199 43.5868 31.1305C42.6615 31.051 41.7462 30.8921 40.8209 30.753C40.3334 30.6835 39.836 30.604 39.3585 30.4947C38.6123 30.3259 37.8761 30.1471 37.1498 29.9186C36.135 29.6007 35.14 29.263 34.1451 28.8955C32.5632 28.3094 31.0311 27.5843 29.5885 26.6903C28.4842 26.0049 27.3798 25.3294 26.3252 24.5745C24.4846 23.2533 22.8132 21.7236 21.291 20.0448C20.7239 19.419 20.1767 18.7932 19.6295 18.1575C19.54 18.0582 19.4405 17.9191 19.6395 17.7999C20.5946 17.2734 21.5497 16.747 22.4948 16.2106C24.226 15.2271 25.9472 14.2437 27.6683 13.2504C29.2602 12.3266 30.852 11.4028 32.4439 10.479C33.7173 9.74393 35.0008 9.01879 36.2743 8.28372C37.1299 7.78705 38.0153 7.37979 38.9804 7.17118C40.1146 6.92285 41.2488 6.90298 42.4029 7.06192C43.8753 7.27052 45.1488 7.94599 46.4024 8.67112C48.3723 9.81346 50.3322 10.9558 52.3121 12.0882C54.8193 13.5285 57.3264 14.949 59.8336 16.3894C61.5249 17.3628 63.2162 18.3363 64.9076 19.3098C66.7681 20.3826 68.6385 21.4454 70.4989 22.5083C70.678 22.6076 70.877 22.6573 71.0561 22.7566C71.1357 22.7964 71.2252 22.9057 71.2252 22.9851C71.2352 23.0745 71.1755 23.2037 71.0959 23.2434C70.6283 23.5017 70.1507 23.7301 69.6831 23.9785C68.7479 24.4652 67.8426 24.9917 66.8974 25.4486C65.415 26.1737 63.9326 26.8989 62.4104 27.5346C60.8086 28.2001 59.1769 28.7763 57.5353 29.3226C56.4509 29.6901 55.3366 29.9782 54.2124 30.2365C52.9588 30.5245 51.6953 30.8027 50.4218 30.9616C49.0986 31.1702 47.7554 31.21 46.7705 31.2795ZM45.1388 26.1539C46.3427 26.1638 47.4271 26.0347 48.432 25.5281C49.4269 25.0314 50.1531 24.2765 50.5213 23.2335C50.959 21.9818 51.0685 20.7004 50.7799 19.3892C50.5412 18.2866 50.0537 17.3032 49.2378 16.5185C47.7753 15.098 45.9746 14.4623 43.9549 14.4325C43.5172 14.4225 43.0794 14.4027 42.6516 14.4821C41.796 14.651 41.01 14.9987 40.2638 15.4556C38.5824 16.4887 37.2791 17.929 36.0653 19.4488C35.9559 19.5879 35.9957 19.6574 36.1549 19.6972C37.2493 19.9952 38.0253 20.6905 38.5824 21.6441C38.9406 22.25 39.239 22.8957 39.6171 23.5017C40.2539 24.5248 41.199 25.2301 42.3034 25.6671C43.2386 26.0446 44.2235 26.1837 45.1388 26.1539Z"
        fill="white" />
    <path
        d="M17.8287 58.1299C18.0377 58.0306 18.2565 57.9313 18.4555 57.822C19.2912 57.3849 20.127 56.9479 20.9627 56.5009C21.6392 56.1333 22.3058 55.7459 22.9923 55.3883C23.1316 55.3188 23.44 55.289 23.4599 55.3387C23.5594 55.5373 23.4002 55.6963 23.2311 55.7857C22.8828 55.9744 22.5346 56.1532 22.1864 56.3419C21.9775 56.4512 21.7785 56.5803 21.5895 56.7095C21.5298 56.7492 21.4999 56.8386 21.4502 56.9081C21.4701 56.928 21.48 56.9479 21.4999 56.9677C21.5795 56.928 21.6691 56.9081 21.7387 56.8585C21.9874 56.7194 22.2262 56.5605 22.4849 56.4313C23.3703 55.9843 24.2459 55.5175 25.1413 55.1003C25.5591 54.9115 25.9472 54.6731 26.4446 54.6235C26.8426 54.5837 27.2206 54.3056 27.6186 54.1665C28.5538 53.8189 29.4791 53.4613 30.4242 53.1633C31.2599 52.905 32.1056 52.6865 32.9612 52.5275C33.8865 52.3587 34.8416 52.2792 35.7768 52.1501C37.1199 51.9613 38.473 51.9911 39.8161 52.1004C40.8707 52.1898 41.9353 52.3289 42.9799 52.5375C44.0842 52.756 45.1786 53.0242 46.2432 53.3917C47.4371 53.799 48.5912 54.3255 49.7452 54.842C50.959 55.3883 52.0733 56.1035 53.1478 56.8684C53.8443 57.3551 54.5208 57.8717 55.1575 58.428C56.0032 59.1829 56.829 59.9776 57.595 60.812C58.5303 61.8351 59.3759 62.9476 60.1221 64.1198C60.2117 64.2588 60.341 64.388 60.4504 64.5171C60.6196 64.7257 60.5599 64.8747 60.3211 64.984C59.9132 65.1727 59.5252 65.4012 59.1371 65.6197C57.7841 66.3945 56.441 67.1693 55.0879 67.9441C53.695 68.7487 52.3021 69.5533 50.8993 70.3579C49.6458 71.0831 48.3922 71.8082 47.1287 72.5135C46.2929 72.9903 45.4672 73.477 44.6016 73.8942C43.348 74.5001 41.995 74.7187 40.6021 74.669C38.9207 74.5995 37.4084 74.0432 35.9857 73.1691C35.0107 72.5731 34.0059 72.0367 33.011 71.4705C31.9066 70.8447 30.8122 70.2089 29.7178 69.5732C28.1061 68.6494 26.5043 67.7157 24.8926 66.7918C23.2012 65.8184 21.5099 64.835 19.8185 63.8714C18.1173 62.898 16.406 61.9245 14.7047 60.951C14.1973 60.663 13.68 60.3848 13.1726 60.1067C13.0134 60.0173 12.9736 59.8087 13.0831 59.6696C13.7894 58.8054 14.5555 58.0008 15.4509 57.3353C16.0876 56.8585 16.804 56.481 17.4905 56.0638C18.2963 55.5671 19.1022 55.0705 19.918 54.6036C20.4254 54.3155 20.9428 54.0473 21.4701 53.799C22.1765 53.4613 22.9028 53.1633 23.5892 52.8057C24.5543 52.3189 25.5094 51.8223 26.5441 51.5044C27.6982 51.1468 28.8722 50.819 30.0063 50.4117C30.9217 50.0839 31.8569 49.9846 32.812 49.9151C33.1602 49.8952 33.5084 49.8058 33.8566 49.7561C33.976 49.7362 34.1054 49.7064 34.2347 49.7164C34.3143 49.7164 34.3939 49.766 34.4735 49.7958C34.4337 49.8753 34.4138 50.0144 34.3441 50.0442C34.0059 50.1832 33.6577 50.3918 33.3094 50.4018C32.4439 50.4415 31.6878 50.7892 30.9018 51.0673C30.076 51.3554 29.2204 51.5541 28.3946 51.8322C27.6783 52.0706 26.9421 52.2395 26.2954 52.6666C26.0367 52.8454 25.6984 52.9149 25.4099 53.054C24.8428 53.3321 24.2956 53.6301 23.7285 53.9182C23.5096 54.0275 23.2808 54.097 23.052 54.1963C22.9724 54.2261 22.9127 54.2957 22.8431 54.3453C22.853 54.3851 22.8729 54.4149 22.8828 54.4546C23.042 54.4248 23.2012 54.4149 23.3504 54.3553C23.5992 54.246 23.828 54.1069 24.0568 53.9679C24.1961 53.8884 24.3553 53.7791 24.4548 53.948C24.4946 54.0275 24.3951 54.2559 24.2956 54.3155C23.9076 54.5539 23.4997 54.7725 23.1017 54.9811C22.2759 55.4082 21.4402 55.7956 20.6344 56.2426C19.8882 56.6499 19.1718 57.0869 18.4456 57.524C18.1968 57.673 17.968 57.8419 17.7292 58.0008C17.779 58.0405 17.7989 58.0902 17.8287 58.1299Z"
        fill="white" />
    <path
        d="M10.3274 58.0499C10.2677 57.7519 10.4169 57.6029 10.6457 57.4241C11.0238 57.146 11.5113 56.997 11.7501 56.54C11.76 56.5202 11.7899 56.5003 11.8098 56.4903C12.2376 56.1526 12.6654 55.8049 13.0932 55.4672C13.1429 55.4275 13.2126 55.3679 13.2822 55.3679C13.8692 55.348 14.1876 54.9308 14.506 54.5335C14.6453 54.3646 14.7448 54.2454 14.9835 54.2752C15.3019 54.3149 15.5606 54.156 15.7894 53.9573C16.0282 53.7487 16.2669 53.5401 16.6052 53.5103C16.6649 53.5004 16.7246 53.4408 16.7843 53.411C17.1325 53.2421 17.4907 53.0733 17.8389 52.9044C18.0379 52.8051 18.2369 52.6958 18.4458 52.6163C18.5552 52.5766 18.7144 52.4872 18.794 52.6759C18.8636 52.8448 18.8338 53.0037 18.6647 53.0931C18.5851 53.1329 18.4955 53.1527 18.4159 53.1825C18.2468 53.2521 18.0876 53.3216 17.9185 53.3911C17.8289 53.4309 17.7295 53.4607 17.6399 53.4805C17.0927 53.5898 16.6749 53.9573 16.2172 54.2255C16.0282 54.3447 15.8491 54.4937 15.6401 54.5732C14.9736 54.8414 14.5358 55.3778 14.0583 55.8645C13.8593 56.0632 13.6304 56.2619 13.3817 56.3712C12.8445 56.6195 12.4664 56.987 12.1779 57.4936C12.1282 57.583 12.0585 57.6526 12.0187 57.742C11.9988 57.7916 11.9789 57.8711 12.0088 57.9108C12.0386 57.9406 12.1381 57.9506 12.1679 57.9307C12.347 57.8115 12.5162 57.6724 12.6952 57.5433C12.9141 57.3943 13.133 57.2354 13.3718 57.1062C14.2274 56.6493 15.0929 56.2023 15.9486 55.7354C16.5157 55.4275 17.0728 55.1195 17.62 54.7719C17.9682 54.5434 18.2866 54.2752 18.7244 54.2454C18.8238 54.2355 18.9233 54.1659 19.0129 54.1163C19.0527 54.0964 19.0825 54.0467 19.1223 54.0368C19.3014 53.9971 19.5004 53.8977 19.6397 54.0964C19.7292 54.2255 19.5601 54.4639 19.3412 54.5434C18.0976 54.9308 17.043 55.646 16.068 56.4804C15.9088 56.6096 15.7198 56.7089 15.5407 56.8182C15.4909 56.848 15.4412 56.8579 15.4014 56.8877C14.9338 57.2552 14.4562 57.6128 13.9986 57.9903C13.72 58.2188 13.4713 58.4572 13.0633 58.3777C13.0037 58.3678 12.934 58.3876 12.8843 58.4174C12.8345 58.4472 12.7947 58.4969 12.7549 58.5466C12.8047 58.5962 12.8445 58.6658 12.9042 58.6856C13.2623 58.8048 13.3021 58.9936 13.0335 59.2518C12.4963 59.7684 12.6753 59.8081 11.9889 59.3611C11.581 59.0929 11.1531 58.8545 10.7253 58.636C10.4268 58.4969 10.2577 58.3479 10.3274 58.0499Z"
        fill="white" />
    <path
        d="M10.3172 30.4756C10.4864 30.5849 10.6057 30.6544 10.7152 30.7438C11.2922 31.1908 11.8493 31.6676 12.4363 32.0948C13.2323 32.661 14.0381 33.2272 14.8739 33.7338C16.028 34.4192 17.2119 35.0748 18.4058 35.7006C19.2514 36.1476 20.117 36.5449 20.9925 36.9224C21.868 37.2999 22.7535 37.6376 23.6489 37.9753C24.3155 38.2237 25.002 38.4521 25.6885 38.6508C26.5839 38.9091 27.4892 39.1475 28.3946 39.366C29.3597 39.5945 30.3247 39.813 31.2997 39.9819C32.1454 40.1309 33.001 40.1805 33.8467 40.3196C35.5579 40.5977 37.2791 40.4984 39.0003 40.4487C39.9057 40.4189 40.8011 40.2799 41.6965 40.1607C42.6416 40.0315 43.5967 39.9123 44.532 39.7236C46.0144 39.4256 47.4968 39.0779 48.9692 38.7501C49.2776 38.6806 49.5861 38.6011 49.8746 38.4919C49.994 38.4521 50.0736 38.3031 50.1731 38.2137C50.2626 38.1343 50.3422 38.0151 50.4417 37.9952C50.7799 37.9455 51.0884 37.8462 51.347 37.6078C51.4266 37.5383 51.6057 37.5283 51.7251 37.5482C51.9241 37.578 52.1032 37.6674 52.2922 37.7171C52.3917 37.7469 52.5111 37.7667 52.6006 37.7369C53.7945 37.3495 54.9784 36.9621 56.1624 36.5648C56.3415 36.5052 56.5205 36.4456 56.6897 36.3562C56.7792 36.3065 56.8986 36.1873 56.8986 36.088C56.9185 35.8694 57.008 35.7204 57.1871 35.6012C57.4657 35.4125 57.7343 35.1741 58.1223 35.3032C58.192 35.3231 58.2815 35.2635 58.3611 35.2635C58.6098 35.2536 58.8586 35.2337 59.1073 35.2436C59.7639 35.2834 60.3609 35.1344 60.7091 34.5483C61.0573 33.9622 61.6144 33.9821 62.1517 33.9026C62.1716 33.9026 62.1915 33.9026 62.2015 33.9126C62.6392 34.2801 63.0073 33.9026 63.3854 33.7735C63.7038 33.6742 63.9923 33.5053 64.3007 33.3762C64.5494 33.2768 64.639 33.0782 64.5892 32.8298C64.5395 32.5616 64.3405 32.5219 64.1117 32.5418C63.3456 32.5914 62.6392 32.7702 62.1318 33.4258C62.0323 33.5649 61.8035 33.6642 61.6244 33.6742C61.2961 33.704 60.9379 33.7437 60.6593 33.5053C60.5698 33.4358 60.5499 33.2868 60.5002 33.1676C60.5997 33.1378 60.6892 33.0782 60.7887 33.0782C61.107 33.108 61.3657 33.0285 61.6045 32.81C61.7637 32.6709 62.0124 32.6312 62.2015 32.512C62.49 32.3232 62.7686 32.1146 63.0471 31.906C63.3655 31.6676 63.6441 31.3597 63.9923 31.1809C64.5295 30.9028 65.1165 30.7041 65.6737 30.4657C65.7433 30.4359 65.8229 30.3962 65.9025 30.3862C66.1015 30.3664 66.3104 30.3167 66.4994 30.3564C66.7183 30.4061 66.8775 30.3962 67.0466 30.2472C67.1561 30.1578 67.3153 30.128 67.4545 30.0684C67.5938 29.9988 67.753 29.9392 67.8724 29.8399C68.0415 29.6909 68.2007 29.6512 68.4096 29.7306C68.5091 29.7704 68.6783 29.7306 68.7579 29.671C69.0563 29.4326 69.3349 29.1446 69.6334 28.8962C69.7428 28.8068 69.8821 28.7671 70.0015 28.6976C70.0512 28.6777 70.1209 28.6777 70.1507 28.638C70.4094 28.2903 70.8372 28.2307 71.1854 28.032C71.2551 27.9923 71.3347 27.9625 71.4043 27.9426C71.5933 27.8929 71.6729 27.9625 71.663 28.1611C71.6431 28.777 71.6331 29.3929 71.6331 30.0088C71.6331 32.6709 71.6431 35.333 71.6431 37.9952C71.6431 41.6705 71.6331 45.3459 71.6331 49.0212C71.6331 50.8589 71.6331 52.6966 71.6431 54.5343C71.6431 54.6932 71.7028 54.8521 71.7127 55.0111C71.7127 55.1005 71.6928 55.2296 71.6331 55.2693C71.5834 55.2991 71.4342 55.2594 71.3745 55.2097C71.2451 55.0806 71.1655 54.9117 71.0461 54.7826C70.5686 54.276 70.1109 53.7495 69.5836 53.2926C68.5987 52.4284 67.6038 51.5642 66.5691 50.7695C65.2458 49.7464 63.853 48.8325 62.3606 48.0875C61.0971 47.4518 59.8336 46.826 58.5203 46.3094C57.0379 45.7333 55.5157 45.2664 53.9835 44.8095C53.1677 44.5612 52.3121 44.4419 51.4764 44.2731C50.8993 44.1539 50.3223 44.0446 49.7452 43.9651C48.9294 43.8459 48.1136 43.7168 47.2978 43.6771C45.6064 43.5877 43.9151 43.5082 42.2238 43.4883C41.2687 43.4784 40.3036 43.5678 39.3485 43.6373C38.5128 43.6969 37.6771 43.7764 36.8413 43.8757C36.4235 43.9254 36.0056 44.0247 35.5878 44.1141C34.6426 44.3128 33.6975 44.4916 32.7623 44.73C31.7276 44.9982 30.6928 45.2763 29.678 45.6339C28.1757 46.1604 26.6834 46.7068 25.2308 47.3524C23.7484 47.9981 22.3158 48.7431 20.8831 49.508C19.7589 50.104 18.6445 50.7496 17.57 51.435C16.2866 52.2496 15.043 53.1237 13.7795 53.978C13.3815 54.2561 12.9537 54.5144 12.6055 54.8422C12.1777 55.2395 11.8195 55.7064 11.4215 56.1335C11.2027 56.3719 10.9539 56.5905 10.7052 56.7891C10.6157 56.8587 10.4565 56.8487 10.3271 56.8686C10.3172 56.7494 10.2973 56.6302 10.3073 56.511C10.3172 56.1534 10.357 55.7859 10.357 55.4283C10.357 50.551 10.357 45.6638 10.3471 40.7865C10.3471 37.876 10.3471 34.9754 10.3371 32.065C10.3371 31.618 10.2874 31.161 10.2675 30.714C10.2774 30.6743 10.2973 30.6147 10.3172 30.4756Z"
        fill="white" />
    <path
        d="M71.6232 25.0216C71.6332 25.3196 71.6531 25.6772 71.673 26.0249C71.6829 26.2434 71.6132 26.3527 71.3844 26.4321C71.1257 26.5215 70.9069 26.7301 70.6681 26.8891C70.2801 27.1473 69.8821 27.3957 69.4941 27.6539C69.1359 27.8923 68.7778 28.1307 68.4196 28.3691C68.3699 28.3989 68.3002 28.4585 68.2604 28.4585C67.8625 28.3989 67.6336 28.687 67.375 28.8956C67.2755 28.9751 67.1661 29.0446 67.0566 29.0943C66.6786 29.2731 66.3104 29.4916 65.9025 29.5909C65.5444 29.6803 65.2857 29.8989 64.9972 30.0975C64.44 30.4949 63.7834 30.5048 63.1367 30.5247C63.067 30.5247 62.9476 30.4551 62.9277 30.3955C62.9078 30.3161 62.9377 30.2068 62.9875 30.1273C63.0273 30.0677 63.1267 30.0379 63.1864 29.9883C63.2461 29.9386 63.2959 29.8889 63.3456 29.8393C63.2959 29.7995 63.2362 29.7598 63.1864 29.7201C63.1168 29.6605 63.0471 29.5909 62.9675 29.5214C63.0372 29.4519 63.0969 29.3426 63.1765 29.3227C63.4152 29.2731 63.6739 29.2234 63.9127 29.2333C64.3206 29.2433 64.4002 29.2035 64.4997 28.8261C64.5494 28.6274 64.6788 28.5976 64.8579 28.6671C65.0767 28.7665 65.226 28.7565 65.2956 28.4784C65.3155 28.3989 65.415 28.3195 65.4946 28.2897C65.7035 28.2201 65.7632 28.0811 65.7433 27.8725C65.7234 27.5645 65.803 27.4553 66.1114 27.4255C66.3701 27.4056 66.6288 27.4354 66.8875 27.4652C67.0566 27.4851 67.166 27.4751 67.2556 27.2963C67.375 27.0579 67.6038 26.9387 67.8824 26.8593C68.2604 26.75 68.6186 26.5513 68.9469 26.3229C69.2852 26.0845 69.6035 25.8461 70.0513 25.9255C70.1209 25.9355 70.2104 25.8461 70.3 25.8063C70.2403 25.7169 70.2005 25.6176 70.1309 25.558C70.0811 25.5183 69.9717 25.558 69.902 25.5381C69.8025 25.4984 69.713 25.4388 69.6235 25.3891C69.6931 25.2699 69.7329 25.0812 69.8324 25.0514C70.3497 24.8627 70.7875 24.5647 71.2053 24.2071C71.3148 24.1077 71.4839 24.0581 71.6232 23.9885C71.6431 24.1276 71.6829 24.2766 71.6929 24.4256C71.663 24.6044 71.6431 24.7832 71.6232 25.0216Z"
        fill="white" />
    <defs>
        <linearGradient id="paint0_linear" x1="40.9992" y1="4.56637" x2="40.9992" y2="84.2366"
            gradientUnits="userSpaceOnUse">
            <stop stop-color="#009FE8" />
            <stop offset="1" stop-color="#00478A" />
        </linearGradient>
        <linearGradient id="paint1_linear" x1="40.9979" y1="2.11243" x2="40.9979" y2="42.3341"
            gradientUnits="userSpaceOnUse">
            <stop stop-color="white" />
            <stop offset="1" stop-color="white" stop-opacity="0" />
        </linearGradient>
    </defs>
</svg>
